<svg xmlns="http://www.w3.org/2000/svg" xmlns:xlink="http://www.w3.org/1999/xlink" width="500" zoomAndPan="magnify" viewBox="0 0 375 374.999991" height="500" preserveAspectRatio="xMidYMid meet" version="1.0"><defs><clipPath id="610f26725d"><path d="M 24.503906 251.316406 L 132.816406 251.316406 L 132.816406 339.242188 L 24.503906 339.242188 Z M 24.503906 251.316406 " clip-rule="nonzero"/></clipPath><clipPath id="6e72d6a23c"><path d="M 117.808594 214.832031 L 181.753906 214.832031 L 181.753906 251.316406 L 117.808594 251.316406 Z M 117.808594 214.832031 " clip-rule="nonzero"/></clipPath><clipPath id="a046549b60"><path d="M 150.074219 278.507812 L 116.917969 278.507812 L 122.339844 262.875 C 127.761719 247.246094 146.796875 245.257812 146.796875 245.257812 C 146.796875 245.257812 154.636719 240.070312 162.652344 233.683594 C 170.671875 227.292969 178.863281 219.695312 179.574219 214.875 C 179.574219 214.875 189.304688 222.820312 166.558594 244.3125 C 143.8125 265.808594 166.558594 268.738281 166.558594 268.738281 L 150.074219 278.507812 " clip-rule="nonzero"/></clipPath><clipPath id="ee947161bd"><path d="M 24.503906 293 L 131 293 L 131 339 L 24.503906 339 Z M 24.503906 293 " clip-rule="nonzero"/></clipPath><clipPath id="db8a1e0f9b"><path d="M 175.882812 216 L 223 216 L 223 262.878906 L 175.882812 262.878906 Z M 175.882812 216 " clip-rule="nonzero"/></clipPath><clipPath id="bc9b99c71f"><path d="M 175.945312 249.6875 C 175.945312 249.6875 216.914062 269.339844 257.675781 260.542969 L 280.332031 216.105469 C 280.332031 216.105469 224.015625 233.140625 205.300781 220.375 L 175.945312 249.6875 " clip-rule="nonzero"/></clipPath><clipPath id="ae1289430f"><path d="M 69.6875 175 L 80.78125 175 L 80.78125 180.953125 L 69.6875 180.953125 Z M 69.6875 175 " clip-rule="nonzero"/></clipPath><clipPath id="81b7f9ee6b"><path d="M 82.71875 168.101562 C 81.535156 165.976562 79.707031 164.351562 77.574219 163.523438 C 76.589844 163.140625 75.582031 162.945312 74.585938 162.945312 C 71.066406 162.945312 68.21875 165.355469 67.503906 168.941406 C 67.136719 170.796875 67.367188 172.773438 68.144531 174.617188 L 70.445312 173.777344 C 69.84375 172.398438 69.625 170.875 69.914062 169.421875 C 70.398438 166.976562 72.234375 165.398438 74.585938 165.398438 C 75.277344 165.398438 75.984375 165.535156 76.683594 165.808594 C 80.007812 167.097656 82.152344 170.933594 81.46875 174.363281 C 80.984375 176.804688 79.148438 178.382812 76.796875 178.382812 C 76.511719 178.382812 76.222656 178.359375 75.929688 178.3125 C 75.929688 178.3125 74.496094 177.976562 74.320312 179.554688 C 74.320312 179.554688 74.449219 180.65625 75.625 180.746094 C 76.015625 180.804688 76.40625 180.835938 76.796875 180.835938 C 80.320312 180.835938 83.164062 178.425781 83.878906 174.839844 C 84.320312 172.625 83.90625 170.234375 82.71875 168.101562 " clip-rule="nonzero"/></clipPath><clipPath id="06a6b3b000"><path d="M 67.242188 165.480469 L 73.601562 165.480469 L 73.601562 178.675781 L 67.242188 178.675781 Z M 67.242188 165.480469 " clip-rule="nonzero"/></clipPath><clipPath id="a888af13a3"><path d="M 82.71875 168.101562 C 81.535156 165.976562 79.707031 164.351562 77.574219 163.523438 C 76.589844 163.140625 75.582031 162.945312 74.585938 162.945312 C 71.066406 162.945312 68.21875 165.355469 67.503906 168.941406 C 67.136719 170.796875 67.367188 172.773438 68.144531 174.617188 L 70.445312 173.777344 C 69.84375 172.398438 69.625 170.875 69.914062 169.421875 C 70.398438 166.976562 72.234375 165.398438 74.585938 165.398438 C 75.277344 165.398438 75.984375 165.535156 76.683594 165.808594 C 80.007812 167.097656 82.152344 170.933594 81.46875 174.363281 C 80.984375 176.804688 79.148438 178.382812 76.796875 178.382812 C 76.511719 178.382812 76.222656 178.359375 75.929688 178.3125 C 75.929688 178.3125 74.496094 177.976562 74.320312 179.554688 C 74.320312 179.554688 74.449219 180.65625 75.625 180.746094 C 76.015625 180.804688 76.40625 180.835938 76.796875 180.835938 C 80.320312 180.835938 83.164062 178.425781 83.878906 174.839844 C 84.320312 172.625 83.90625 170.234375 82.71875 168.101562 " clip-rule="nonzero"/></clipPath><clipPath id="d5ddbceeb3"><path d="M 102.640625 162.875 L 113.894531 162.875 L 113.894531 168.902344 L 102.640625 168.902344 Z M 102.640625 162.875 " clip-rule="nonzero"/></clipPath><clipPath id="166c05ee8d"><path d="M 115.828125 156.015625 C 114.644531 153.890625 112.816406 152.265625 110.683594 151.4375 C 109.699219 151.054688 108.691406 150.859375 107.695312 150.859375 C 104.175781 150.859375 101.328125 153.269531 100.613281 156.855469 C 100.246094 158.710938 100.476562 160.6875 101.257812 162.53125 L 103.554688 161.6875 C 102.953125 160.3125 102.734375 158.789062 103.023438 157.332031 C 103.507812 154.890625 105.34375 153.3125 107.695312 153.3125 C 108.386719 153.3125 109.09375 153.449219 109.792969 153.722656 C 113.117188 155.011719 115.261719 158.851562 114.578125 162.277344 C 114.09375 164.71875 112.257812 166.296875 109.90625 166.296875 C 109.621094 166.296875 109.332031 166.273438 109.039062 166.226562 C 109.039062 166.226562 107.605469 165.890625 107.429688 167.46875 C 107.429688 167.46875 107.5625 168.570312 108.734375 168.660156 C 109.125 168.71875 109.515625 168.75 109.90625 168.75 C 113.429688 168.75 116.273438 166.34375 116.988281 162.757812 C 117.429688 160.539062 117.019531 158.148438 115.828125 156.015625 " clip-rule="nonzero"/></clipPath><clipPath id="a36f816ef6"><path d="M 100.355469 153.265625 L 106.71875 153.265625 L 106.71875 166.621094 L 100.355469 166.621094 Z M 100.355469 153.265625 " clip-rule="nonzero"/></clipPath><clipPath id="ee121d0ab8"><path d="M 115.828125 156.015625 C 114.644531 153.890625 112.816406 152.265625 110.683594 151.4375 C 109.699219 151.054688 108.691406 150.859375 107.695312 150.859375 C 104.175781 150.859375 101.328125 153.269531 100.613281 156.855469 C 100.246094 158.710938 100.476562 160.6875 101.257812 162.53125 L 103.554688 161.6875 C 102.953125 160.3125 102.734375 158.789062 103.023438 157.332031 C 103.507812 154.890625 105.34375 153.3125 107.695312 153.3125 C 108.386719 153.3125 109.09375 153.449219 109.792969 153.722656 C 113.117188 155.011719 115.261719 158.851562 114.578125 162.277344 C 114.09375 164.71875 112.257812 166.296875 109.90625 166.296875 C 109.621094 166.296875 109.332031 166.273438 109.039062 166.226562 C 109.039062 166.226562 107.605469 165.890625 107.429688 167.46875 C 107.429688 167.46875 107.5625 168.570312 108.734375 168.660156 C 109.125 168.71875 109.515625 168.75 109.90625 168.75 C 113.429688 168.75 116.273438 166.34375 116.988281 162.757812 C 117.429688 160.539062 117.019531 158.148438 115.828125 156.015625 " clip-rule="nonzero"/></clipPath><clipPath id="50b6fb768d"><path d="M 80.453125 202.453125 L 122.703125 202.453125 L 122.703125 211.898438 L 80.453125 211.898438 Z M 80.453125 202.453125 " clip-rule="nonzero"/></clipPath><clipPath id="109c4c516e"><path d="M 108.738281 211.878906 C 107.472656 211.878906 106.230469 211.820312 105.007812 211.707031 C 105.105469 211.402344 105.140625 211.105469 105.117188 210.816406 C 105.078125 210.367188 104.894531 209.957031 104.589844 209.640625 C 104.289062 208.980469 103.875 208.058594 103.433594 207.03125 C 105.820312 207.347656 108.167969 207.644531 110.359375 207.90625 L 110.816406 209.046875 L 111.246094 209.875 L 113.769531 208.527344 L 113.671875 208.296875 C 118.890625 208.898438 122.582031 209.261719 122.582031 209.261719 C 117.835938 211.140625 113.160156 211.878906 108.738281 211.878906 M 101.910156 211.308594 C 98.863281 210.808594 96.011719 210.015625 93.4375 209.101562 C 93.019531 207.933594 92.636719 206.625 92.3125 205.382812 C 94.773438 205.800781 97.414062 206.199219 100.082031 206.574219 C 100.980469 208.738281 101.855469 210.644531 102.070312 211.109375 C 102.023438 211.171875 101.96875 211.238281 101.910156 211.308594 M 89.945312 207.722656 C 85.324219 205.714844 81.980469 203.527344 80.546875 202.523438 C 82.027344 203.289062 85.207031 204.074219 89.183594 204.824219 C 89.375 205.640625 89.632812 206.652344 89.945312 207.722656 " clip-rule="nonzero"/></clipPath><clipPath id="6741cb2372"><path d="M 242 35.503906 L 350.753906 35.503906 L 350.753906 124 L 242 124 Z M 242 35.503906 " clip-rule="nonzero"/></clipPath><clipPath id="a0dea2fbc6"><path d="M 194.152344 120.855469 L 258.097656 120.855469 L 258.097656 157.339844 L 194.152344 157.339844 Z M 194.152344 120.855469 " clip-rule="nonzero"/></clipPath><clipPath id="f72a55f786"><path d="M 225.832031 93.644531 L 258.992188 93.644531 L 253.566406 109.273438 C 248.144531 124.90625 229.109375 126.894531 229.109375 126.894531 C 229.109375 126.894531 221.273438 132.082031 213.253906 138.46875 C 205.238281 144.859375 197.042969 152.457031 196.332031 157.277344 C 196.332031 157.277344 186.605469 149.332031 209.347656 127.839844 C 232.09375 106.34375 209.347656 103.414062 209.347656 103.414062 L 225.832031 93.644531 " clip-rule="nonzero"/></clipPath><clipPath id="8df5d40fae"><path d="M 244 35.503906 L 350.753906 35.503906 L 350.753906 81 L 244 81 Z M 244 35.503906 " clip-rule="nonzero"/></clipPath></defs><g clip-path="url(#610f26725d)"><path fill="#d3bd5e" d="M 132.40625 251.347656 L 48.570312 275.734375 C 48.570312 275.734375 24.503906 279.160156 24.503906 297.964844 L 24.503906 339.242188 L 132.722656 314.816406 C 132.722656 314.816406 109.445312 300.277344 129.890625 277.261719 L 132.40625 251.347656 " fill-opacity="1" fill-rule="nonzero"/></g><path fill="#775d38" d="M 124.570312 315.144531 C 124.570312 315.144531 171.304688 315.640625 170.328125 278.511719 C 169.347656 241.386719 122.136719 273.132812 122.136719 273.132812 L 124.570312 315.144531 " fill-opacity="1" fill-rule="nonzero"/><path fill="#c49249" d="M 150.074219 278.507812 L 116.917969 278.507812 L 122.339844 262.875 C 127.761719 247.246094 146.796875 245.257812 146.796875 245.257812 C 146.796875 245.257812 154.636719 240.070312 162.652344 233.683594 C 170.671875 227.292969 178.863281 219.695312 179.574219 214.875 C 179.574219 214.875 189.304688 222.820312 166.558594 244.3125 C 143.8125 265.808594 166.558594 268.738281 166.558594 268.738281 L 150.074219 278.507812 " fill-opacity="1" fill-rule="nonzero"/><g clip-path="url(#6e72d6a23c)"><g clip-path="url(#a046549b60)"><path fill="#c49249" d="M 166.558594 244.3125 C 166.558594 244.3125 143.542969 241.058594 134.207031 249.398438 C 124.875 257.738281 103.472656 235.265625 132.449219 214.875 C 161.425781 194.484375 153.132812 185.691406 175.871094 191.554688 C 198.613281 197.414062 206.1875 203.277344 208.761719 208.164062 C 211.335938 213.046875 205.210938 212.015625 208.761719 220.476562 C 212.3125 228.941406 188.207031 239.429688 188.207031 239.429688 L 166.558594 244.3125 " fill-opacity="1" fill-rule="nonzero"/></g></g><path fill="#f4be67" d="M 221.78125 242.359375 C 221.78125 242.359375 243.652344 220.375 254.71875 225.257812 C 254.71875 225.257812 204.914062 278.507812 198.746094 278.507812 C 192.578125 278.507812 208.597656 246.691406 208.597656 246.691406 L 221.78125 242.359375 " fill-opacity="1" fill-rule="nonzero"/><g clip-path="url(#ee947161bd)"><path fill="#bf8d4b" d="M 130.871094 314.492188 C 130.871094 314.492188 24.992188 325.402344 24.992188 293.160156 L 24.992188 338.105469 L 130.871094 314.492188 " fill-opacity="1" fill-rule="nonzero"/></g><path fill="#1cb762" d="M 175.945312 249.6875 C 175.945312 249.6875 216.914062 269.339844 257.675781 260.542969 L 280.332031 216.105469 C 280.332031 216.105469 224.015625 233.140625 205.300781 220.375 L 175.945312 249.6875 " fill-opacity="1" fill-rule="nonzero"/><path fill="#68d878" d="M 226.109375 230.636719 C 226.109375 230.636719 217.300781 230.660156 216.808594 242.132812 C 216.320312 253.601562 231.984375 259.261719 245.195312 245.679688 C 245.195312 245.679688 252.664062 234.550781 241.628906 230.636719 C 230.597656 226.722656 226.109375 230.636719 226.109375 230.636719 " fill-opacity="1" fill-rule="nonzero"/><path fill="#147255" d="M 231.347656 235.640625 C 231.191406 235.867188 231.144531 236.125 231.207031 236.410156 C 231.265625 236.695312 231.433594 237.0625 231.710938 237.507812 L 233.121094 235.433594 C 232.730469 235.273438 232.382812 235.210938 232.0625 235.238281 C 231.746094 235.269531 231.507812 235.402344 231.347656 235.640625 Z M 231.863281 242.746094 C 232.03125 242.503906 232.089844 242.242188 232.042969 241.972656 C 231.996094 241.703125 231.84375 241.359375 231.582031 240.9375 L 230.105469 243.109375 C 230.464844 243.234375 230.804688 243.273438 231.121094 243.222656 C 231.433594 243.171875 231.683594 243.011719 231.863281 242.746094 Z M 227.410156 243.839844 C 226.640625 243.148438 226.082031 242.355469 225.730469 241.449219 C 225.378906 240.546875 225.34375 239.582031 225.628906 238.550781 L 228.011719 239.234375 C 227.867188 239.691406 227.84375 240.175781 227.945312 240.6875 C 228.042969 241.195312 228.265625 241.65625 228.613281 242.066406 L 230.445312 239.367188 L 230.332031 239.207031 C 230.011719 238.785156 229.726562 238.355469 229.488281 237.921875 C 229.246094 237.488281 229.070312 237.054688 228.957031 236.628906 C 228.84375 236.199219 228.808594 235.777344 228.847656 235.367188 C 228.886719 234.953125 229.035156 234.566406 229.285156 234.195312 C 229.515625 233.855469 229.808594 233.582031 230.15625 233.382812 C 230.507812 233.179688 230.902344 233.058594 231.335938 233.011719 C 231.769531 232.96875 232.238281 233.003906 232.734375 233.121094 C 233.234375 233.242188 233.742188 233.449219 234.265625 233.746094 L 235.097656 232.523438 L 236.589844 233.566406 L 235.738281 234.816406 C 236.148438 235.1875 236.46875 235.558594 236.703125 235.933594 C 236.9375 236.304688 237.109375 236.667969 237.226562 237.019531 C 237.339844 237.371094 237.402344 237.707031 237.402344 238.015625 C 237.40625 238.324219 237.378906 238.609375 237.324219 238.859375 L 234.964844 238.257812 C 235.011719 238.011719 235.011719 237.746094 234.960938 237.457031 C 234.910156 237.167969 234.773438 236.871094 234.554688 236.566406 L 232.824219 239.105469 C 233.191406 239.613281 233.507812 240.09375 233.777344 240.546875 C 234.046875 241 234.242188 241.441406 234.371094 241.863281 C 234.492188 242.285156 234.53125 242.691406 234.480469 243.082031 C 234.429688 243.472656 234.277344 243.859375 234.019531 244.234375 C 233.730469 244.664062 233.386719 244.980469 232.984375 245.191406 C 232.589844 245.402344 232.164062 245.519531 231.710938 245.554688 C 231.261719 245.589844 230.792969 245.542969 230.3125 245.414062 C 229.828125 245.285156 229.363281 245.105469 228.910156 244.871094 L 228.0625 246.121094 L 226.570312 245.078125 L 227.410156 243.839844 " fill-opacity="1" fill-rule="nonzero"/><path fill="#147255" d="M 262.792969 222.414062 C 262.792969 222.414062 261.964844 227.214844 267.460938 228.898438 L 256.691406 251.121094 C 256.691406 251.121094 245.296875 254.164062 243.328125 262.414062 L 257.675781 260.542969 L 280.332031 216.105469 L 262.792969 222.414062 " fill-opacity="1" fill-rule="nonzero"/><g clip-path="url(#db8a1e0f9b)"><g clip-path="url(#bc9b99c71f)"><path fill="#147255" d="M 191.601562 254.570312 C 191.601562 254.570312 200.410156 253.59375 191.601562 242.847656 L 205.300781 228.191406 C 205.300781 228.191406 213.128906 235.03125 222.914062 226.238281 C 222.914062 226.238281 220.957031 213.535156 217.042969 211.582031 C 213.128906 209.628906 214.105469 208.652344 203.34375 207.671875 C 192.578125 206.695312 186.707031 208.652344 181.816406 210.605469 C 176.921875 212.558594 179.859375 203.765625 173.007812 220.375 C 166.15625 236.984375 165.179688 236.007812 164.203125 247.730469 C 163.222656 259.457031 165.179688 264.339844 165.179688 264.339844 L 191.601562 254.570312 " fill-opacity="1" fill-rule="nonzero"/></g></g><path fill="#f4be67" d="M 127.835938 254.121094 C 127.835938 254.121094 144.289062 236.496094 166.558594 244.3125 C 188.828125 252.128906 195.386719 260.433594 209.703125 241.867188 C 224.019531 223.304688 222.425781 223.304688 235.144531 222.328125 C 235.144531 222.328125 226.703125 238.453125 217.550781 253.105469 C 208.398438 267.761719 198.90625 278.507812 198.90625 278.507812 L 116.917969 278.507812 L 127.835938 254.121094 " fill-opacity="1" fill-rule="nonzero"/><path fill="#8c7146" d="M 125.929688 313.570312 C 125.929688 313.570312 116.632812 258.351562 138.65625 247.601562 L 129.140625 252.003906 C 102.03125 259.890625 114.320312 318.871094 114.320312 318.871094 L 126.628906 315.472656 L 125.929688 313.570312 " fill-opacity="1" fill-rule="nonzero"/><path fill="#59442a" d="M 135.324219 278.996094 C 135.324219 278.996094 130.929688 312.214844 153.4375 307.332031 C 153.4375 307.332031 138.964844 315.800781 126.628906 315.472656 C 126.628906 315.472656 122.125 288.441406 125.058594 279.648438 L 135.324219 278.996094 " fill-opacity="1" fill-rule="nonzero"/><path fill="#347782" d="M 122.582031 212.207031 C 122.585938 214.683594 120.816406 217.34375 118.628906 218.144531 L 66.878906 237.085938 C 64.6875 237.886719 62.910156 236.527344 62.902344 234.050781 L 62.78125 181.070312 C 62.773438 178.59375 64.542969 175.933594 66.734375 175.132812 L 118.484375 156.191406 C 120.675781 155.390625 122.453125 156.75 122.460938 159.226562 L 122.582031 212.207031 " fill-opacity="1" fill-rule="nonzero"/><path fill="#89afad" d="M 65.488281 193.152344 L 66.878906 237.085938 L 79.210938 232.570312 Z M 65.488281 193.152344 " fill-opacity="1" fill-rule="nonzero"/><path fill="#9bc4c3" d="M 65.488281 193.152344 C 65.488281 193.152344 62.84375 219.671875 79.210938 232.570312 L 86.847656 229.632812 L 81.902344 201.4375 L 65.488281 193.152344 " fill-opacity="1" fill-rule="nonzero"/><path fill="#cde8e8" d="M 65.488281 193.152344 C 65.488281 193.152344 71.09375 234.953125 91.707031 240.433594 L 138.65625 218.035156 C 138.65625 218.035156 122.859375 199.839844 122.386719 171.890625 L 65.488281 193.152344 " fill-opacity="1" fill-rule="nonzero"/><path fill="#6f9390" d="M 66.507812 225.425781 C 66.507812 225.425781 74.011719 233.113281 79.210938 232.570312 C 79.210938 232.570312 66.472656 221.527344 65.976562 208.648438 C 65.480469 195.769531 66.507812 225.425781 66.507812 225.425781 " fill-opacity="1" fill-rule="nonzero"/><path fill="#21585b" d="M 77.570312 178.832031 C 77.570312 178.832031 76.917969 174.390625 73.765625 176.890625 C 73.765625 176.890625 70.84375 182.539062 75.667969 183.171875 C 75.667969 183.171875 77.171875 183.097656 77.570312 181.769531 L 77.570312 178.832031 " fill-opacity="1" fill-rule="nonzero"/><path fill="#21585b" d="M 109.855469 166.394531 C 109.855469 166.394531 109.203125 161.953125 106.046875 164.457031 C 106.046875 164.457031 103.128906 170.105469 107.953125 170.734375 C 107.953125 170.734375 109.457031 170.660156 109.855469 169.332031 L 109.855469 166.394531 " fill-opacity="1" fill-rule="nonzero"/><path fill="#efcf30" d="M 82.71875 168.101562 C 81.535156 165.976562 79.707031 164.351562 77.574219 163.523438 C 76.589844 163.140625 75.582031 162.945312 74.585938 162.945312 C 71.066406 162.945312 68.21875 165.355469 67.503906 168.941406 C 67.136719 170.796875 67.367188 172.773438 68.144531 174.617188 L 70.445312 173.777344 C 69.84375 172.398438 69.625 170.875 69.914062 169.421875 C 70.398438 166.976562 72.234375 165.398438 74.585938 165.398438 C 75.277344 165.398438 75.984375 165.535156 76.683594 165.808594 C 80.007812 167.097656 82.152344 170.933594 81.46875 174.363281 C 80.984375 176.804688 79.148438 178.382812 76.796875 178.382812 C 76.511719 178.382812 76.222656 178.359375 75.929688 178.3125 C 75.929688 178.3125 74.496094 177.976562 74.320312 179.554688 C 74.320312 179.554688 74.449219 180.65625 75.625 180.746094 C 76.015625 180.804688 76.40625 180.835938 76.796875 180.835938 C 80.320312 180.835938 83.164062 178.425781 83.878906 174.839844 C 84.320312 172.625 83.90625 170.234375 82.71875 168.101562 " fill-opacity="1" fill-rule="nonzero"/><g clip-path="url(#ae1289430f)"><g clip-path="url(#81b7f9ee6b)"><path fill="#c97b27" d="M 79.210938 177.738281 C 79.210938 177.738281 77.480469 179.902344 80.636719 182.179688 C 80.636719 182.179688 77.9375 183.933594 75.691406 183.933594 C 73.445312 183.933594 72.214844 185.035156 71.339844 183.171875 C 70.460938 181.304688 70.421875 180.796875 69.914062 179.648438 C 69.410156 178.503906 69.914062 175.058594 69.914062 175.058594 L 79.210938 177.738281 " fill-opacity="1" fill-rule="nonzero"/></g></g><g clip-path="url(#06a6b3b000)"><g clip-path="url(#a888af13a3)"><path fill="#c97b27" d="M 73.578125 165.5 C 73.578125 165.5 66.722656 166.941406 67.101562 175 L 67.332031 178.589844 C 67.332031 178.589844 72.832031 176 73.578125 175.058594 L 73.578125 165.5 " fill-opacity="1" fill-rule="nonzero"/></g></g><path fill="#efcf30" d="M 115.828125 156.015625 C 114.644531 153.890625 112.816406 152.265625 110.683594 151.4375 C 109.699219 151.054688 108.691406 150.859375 107.695312 150.859375 C 104.175781 150.859375 101.328125 153.269531 100.613281 156.855469 C 100.246094 158.710938 100.476562 160.6875 101.257812 162.53125 L 103.554688 161.6875 C 102.953125 160.3125 102.734375 158.789062 103.023438 157.335938 C 103.507812 154.890625 105.34375 153.3125 107.695312 153.3125 C 108.386719 153.3125 109.09375 153.449219 109.792969 153.722656 C 113.117188 155.011719 115.261719 158.851562 114.578125 162.277344 C 114.09375 164.71875 112.257812 166.296875 109.90625 166.296875 C 109.621094 166.296875 109.332031 166.273438 109.039062 166.226562 C 109.039062 166.226562 107.605469 165.890625 107.429688 167.46875 C 107.429688 167.46875 107.5625 168.570312 108.734375 168.660156 C 109.125 168.71875 109.515625 168.75 109.90625 168.75 C 113.429688 168.75 116.273438 166.34375 116.988281 162.757812 C 117.429688 160.539062 117.019531 158.148438 115.828125 156.015625 " fill-opacity="1" fill-rule="nonzero"/><g clip-path="url(#d5ddbceeb3)"><g clip-path="url(#166c05ee8d)"><path fill="#c97b27" d="M 112.320312 165.652344 C 112.320312 165.652344 110.589844 167.816406 113.746094 170.09375 C 113.746094 170.09375 111.050781 171.847656 108.800781 171.847656 C 106.554688 171.847656 105.324219 172.953125 104.449219 171.085938 C 103.570312 169.21875 103.53125 168.710938 103.023438 167.5625 C 102.519531 166.417969 103.023438 162.976562 103.023438 162.976562 L 112.320312 165.652344 " fill-opacity="1" fill-rule="nonzero"/></g></g><g clip-path="url(#a36f816ef6)"><g clip-path="url(#ee121d0ab8)"><path fill="#c97b27" d="M 106.6875 153.414062 C 106.6875 153.414062 99.832031 154.855469 100.210938 162.914062 L 100.441406 166.503906 C 100.441406 166.503906 105.945312 163.914062 106.6875 162.976562 L 106.6875 153.414062 " fill-opacity="1" fill-rule="nonzero"/></g></g><path fill="#347782" d="M 95.332031 212.734375 C 95.386719 212.820312 96.109375 213.929688 97.144531 213.929688 C 97.261719 213.929688 97.386719 213.917969 97.511719 213.890625 L 101.0625 212.175781 C 101.449219 211.832031 101.84375 211.410156 102.070312 211.109375 C 101.628906 210.160156 98.453125 203.210938 97.90625 200.316406 C 97.6875 199.613281 96.992188 198.1875 96.199219 198.1875 C 96.113281 198.1875 96.019531 198.199219 95.914062 198.230469 L 92.300781 199.238281 L 92.25 199.242188 C 92.160156 199.261719 91.671875 199.394531 91.429688 199.8125 C 91.144531 200.308594 91.203125 201.171875 91.585938 202.253906 L 91.621094 202.355469 L 91.640625 202.457031 C 92.253906 205.5625 93.738281 211.023438 95.125 212.46875 L 95.253906 212.601562 L 95.332031 212.734375 M 97.144531 216.832031 C 95.058594 216.832031 93.550781 215.335938 92.917969 214.351562 C 90.625 211.777344 89.066406 204.386719 88.8125 203.121094 C 88.144531 201.183594 88.191406 199.558594 88.953125 198.296875 C 89.8125 196.871094 91.253906 196.484375 91.699219 196.394531 L 95.132812 195.4375 C 95.492188 195.335938 95.847656 195.285156 96.199219 195.285156 C 98.808594 195.285156 100.265625 197.988281 100.71875 199.585938 L 100.738281 199.65625 L 100.75 199.730469 C 101.105469 201.757812 103.527344 207.316406 104.589844 209.640625 C 104.894531 209.957031 105.078125 210.367188 105.117188 210.816406 C 105.1875 211.625 104.789062 212.46875 103.871094 213.476562 C 103.351562 214.046875 102.824219 214.488281 102.800781 214.507812 L 102.664062 214.625 L 98.53125 216.617188 L 98.40625 216.65625 C 97.988281 216.773438 97.5625 216.832031 97.144531 216.832031 " fill-opacity="1" fill-rule="nonzero"/><path fill="#347782" d="M 106.203125 197.546875 C 105.5 199.078125 104.757812 200.171875 104.703125 200.261719 L 104 201.285156 L 101.941406 199.886719 L 102.644531 198.859375 C 102.679688 198.804688 104.957031 195.421875 104.988281 192.617188 L 107.457031 192.402344 C 107.480469 192.511719 110.578125 202.292969 113.097656 206.914062 L 113.769531 208.527344 L 111.246094 209.875 L 110.816406 209.046875 L 106.203125 197.546875 " fill-opacity="1" fill-rule="nonzero"/><g clip-path="url(#50b6fb768d)"><g clip-path="url(#109c4c516e)"><path fill="#99b2b3" d="M 80.546875 211.878906 L 122.582031 211.878906 L 122.582031 202.523438 L 80.546875 202.523438 Z M 80.546875 211.878906 " fill-opacity="1" fill-rule="nonzero"/></g></g><path fill="#2f636c" d="M 105.007812 211.707031 C 103.957031 211.609375 102.921875 211.476562 101.910156 211.308594 C 101.96875 211.238281 102.023438 211.171875 102.070312 211.109375 C 101.855469 210.644531 100.980469 208.738281 100.082031 206.574219 C 101.199219 206.730469 102.320312 206.886719 103.433594 207.03125 C 103.875 208.058594 104.289062 208.980469 104.589844 209.640625 C 104.894531 209.957031 105.078125 210.367188 105.117188 210.816406 C 105.140625 211.105469 105.105469 211.402344 105.007812 211.707031 M 93.4375 209.101562 C 92.207031 208.664062 91.039062 208.199219 89.945312 207.722656 C 89.632812 206.652344 89.375 205.640625 89.183594 204.824219 C 90.179688 205.011719 91.230469 205.199219 92.3125 205.382812 C 92.636719 206.625 93.019531 207.933594 93.4375 209.101562 " fill-opacity="1" fill-rule="nonzero"/><path fill="#2f636c" d="M 111.246094 209.875 L 110.816406 209.046875 L 110.359375 207.90625 C 111.511719 208.046875 112.625 208.175781 113.671875 208.296875 L 113.769531 208.527344 L 111.246094 209.875 " fill-opacity="1" fill-rule="nonzero"/><path fill="#99b2b3" d="M 80.546875 202.523438 C 80.179688 202.332031 79.917969 202.144531 79.773438 201.960938 C 79.773438 201.960938 80.039062 202.167969 80.546875 202.523438 " fill-opacity="1" fill-rule="nonzero"/><g clip-path="url(#6741cb2372)"><path fill="#43c9b8" d="M 242.847656 123.40625 L 326.683594 99.019531 C 326.683594 99.019531 350.75 95.597656 350.75 76.789062 L 350.75 35.511719 L 242.527344 59.9375 C 242.527344 59.9375 265.804688 74.476562 245.359375 97.496094 L 242.847656 123.40625 " fill-opacity="1" fill-rule="nonzero"/></g><path fill="#1b8c79" d="M 245.363281 59.9375 C 245.363281 59.9375 204.601562 56.515625 205.578125 93.640625 C 206.558594 130.769531 253.769531 99.019531 253.769531 99.019531 L 245.363281 59.9375 " fill-opacity="1" fill-rule="nonzero"/><path fill="#c49249" d="M 225.832031 93.644531 L 258.992188 93.644531 L 253.566406 109.273438 C 248.144531 124.90625 229.109375 126.894531 229.109375 126.894531 C 229.109375 126.894531 221.273438 132.082031 213.253906 138.46875 C 205.238281 144.859375 197.042969 152.457031 196.332031 157.277344 C 196.332031 157.277344 186.605469 149.332031 209.347656 127.839844 C 232.09375 106.34375 209.347656 103.414062 209.347656 103.414062 L 225.832031 93.644531 " fill-opacity="1" fill-rule="nonzero"/><g clip-path="url(#a0dea2fbc6)"><g clip-path="url(#f72a55f786)"><path fill="#c49249" d="M 209.347656 127.839844 C 209.347656 127.839844 232.367188 131.09375 241.699219 122.753906 C 251.03125 114.414062 272.433594 136.890625 243.457031 157.277344 C 214.480469 177.667969 222.773438 186.460938 200.035156 180.597656 C 177.292969 174.738281 169.71875 168.875 167.148438 163.988281 C 164.574219 159.105469 170.699219 160.136719 167.148438 151.675781 C 163.59375 143.210938 187.699219 132.722656 187.699219 132.722656 L 209.347656 127.839844 " fill-opacity="1" fill-rule="nonzero"/></g></g><path fill="#f4be67" d="M 154.128906 129.792969 C 154.128906 129.792969 132.253906 151.777344 121.191406 146.894531 C 121.191406 146.894531 170.996094 93.644531 177.164062 93.644531 C 183.328125 93.644531 167.308594 125.460938 167.308594 125.460938 L 154.128906 129.792969 " fill-opacity="1" fill-rule="nonzero"/><path fill="#1b8c79" d="M 247.5625 93.640625 C 247.5625 93.640625 256.023438 74.59375 245.363281 59.9375 L 247.5625 93.640625 " fill-opacity="1" fill-rule="nonzero"/><g clip-path="url(#8df5d40fae)"><path fill="#228c7a" d="M 244.382812 59.9375 C 244.382812 59.9375 350.425781 48.210938 350.425781 80.453125 L 350.425781 35.511719 L 244.382812 59.9375 " fill-opacity="1" fill-rule="nonzero"/></g><path fill="#1eaf9a" d="M 229.273438 61.125 C 229.273438 61.125 249.824219 57.214844 247.867188 86.527344 L 260.585938 72.847656 L 254.714844 59.167969 L 229.273438 61.125 " fill-opacity="1" fill-rule="nonzero"/><path fill="#1aa85d" d="M 155.25 153.785156 C 155.25 153.785156 173.578125 145.191406 180.421875 140.726562 L 187.652344 135.71875 C 187.652344 135.71875 225.460938 148.183594 233.785156 186.132812 C 233.785156 186.132812 213.257812 202.941406 201.769531 214.976562 C 201.769531 214.976562 203.574219 174.929688 155.25 153.785156 " fill-opacity="1" fill-rule="nonzero"/><path fill="#147255" d="M 167.949219 160.421875 C 167.949219 160.421875 170.234375 156.210938 167.949219 152.472656 C 167.949219 152.472656 183.285156 144.882812 185.820312 142.355469 C 185.820312 142.355469 195.589844 146.691406 201.199219 142.355469 C 201.199219 142.355469 191.660156 136.308594 187.652344 135.71875 C 187.652344 135.71875 162.324219 150.039062 155.25 153.785156 L 167.949219 160.421875 " fill-opacity="1" fill-rule="nonzero"/><path fill="#147255" d="M 199.605469 200.527344 C 199.605469 200.527344 205.671875 196.945312 209.347656 200.527344 L 227.082031 186.441406 C 227.082031 186.441406 224.871094 183.363281 229.777344 173.882812 C 229.777344 173.882812 233.609375 181.851562 233.785156 186.132812 L 201.769531 214.976562 C 201.769531 214.976562 201.875 207.082031 199.605469 200.527344 " fill-opacity="1" fill-rule="nonzero"/><path fill="#68d878" d="M 207.621094 154.640625 C 207.621094 154.640625 198.933594 148.859375 188.4375 154.640625 C 177.941406 160.421875 190.6875 171.625 202.371094 179.9375 C 202.371094 179.9375 208.519531 182.84375 213.773438 177.046875 C 220.652344 169.457031 216.308594 161.867188 207.621094 154.640625 " fill-opacity="1" fill-rule="nonzero"/><path fill="#147255" d="M 202.976562 161.519531 C 202.804688 161.675781 202.714844 161.878906 202.707031 162.125 C 202.703125 162.371094 202.765625 162.699219 202.902344 163.117188 L 204.460938 161.703125 C 204.175781 161.5 203.902344 161.375 203.636719 161.335938 C 203.375 161.300781 203.152344 161.359375 202.976562 161.519531 Z M 201.992188 167.417969 C 202.179688 167.25 202.277344 167.050781 202.292969 166.824219 C 202.308594 166.59375 202.25 166.28125 202.121094 165.890625 L 200.492188 167.371094 C 200.757812 167.542969 201.027344 167.640625 201.292969 167.660156 C 201.5625 167.679688 201.796875 167.597656 201.992188 167.417969 Z M 198.144531 167.433594 C 197.65625 166.71875 197.359375 165.960938 197.25 165.15625 C 197.140625 164.347656 197.304688 163.554688 197.742188 162.773438 L 199.546875 163.796875 C 199.339844 164.140625 199.226562 164.53125 199.207031 164.964844 C 199.1875 165.402344 199.277344 165.820312 199.480469 166.222656 L 201.507812 164.382812 L 201.449219 164.230469 C 201.265625 163.820312 201.121094 163.417969 201.011719 163.015625 C 200.898438 162.617188 200.839844 162.226562 200.832031 161.855469 C 200.824219 161.484375 200.875 161.136719 200.992188 160.808594 C 201.105469 160.480469 201.300781 160.191406 201.578125 159.9375 C 201.835938 159.707031 202.125 159.542969 202.453125 159.449219 C 202.777344 159.351562 203.121094 159.332031 203.488281 159.378906 C 203.847656 159.429688 204.222656 159.546875 204.605469 159.742188 C 204.988281 159.9375 205.359375 160.207031 205.730469 160.550781 L 206.648438 159.71875 L 207.65625 160.863281 L 206.71875 161.714844 C 206.980469 162.097656 207.167969 162.464844 207.285156 162.8125 C 207.402344 163.164062 207.472656 163.492188 207.496094 163.804688 C 207.519531 164.117188 207.503906 164.398438 207.445312 164.648438 C 207.386719 164.902344 207.308594 165.128906 207.214844 165.324219 L 205.410156 164.367188 C 205.5 164.175781 205.550781 163.960938 205.566406 163.714844 C 205.578125 163.46875 205.527344 163.203125 205.410156 162.90625 L 203.496094 164.640625 C 203.695312 165.125 203.859375 165.578125 203.988281 166 C 204.121094 166.425781 204.191406 166.820312 204.210938 167.191406 C 204.230469 167.5625 204.179688 167.898438 204.0625 168.207031 C 203.941406 168.515625 203.742188 168.796875 203.457031 169.058594 C 203.136719 169.347656 202.796875 169.539062 202.429688 169.632812 C 202.0625 169.726562 201.691406 169.738281 201.316406 169.679688 C 200.941406 169.617188 200.570312 169.484375 200.203125 169.285156 C 199.835938 169.089844 199.488281 168.847656 199.167969 168.570312 L 198.230469 169.421875 L 197.21875 168.277344 L 198.144531 167.433594 " fill-opacity="1" fill-rule="nonzero"/><path fill="#f4be67" d="M 248.070312 118.03125 C 248.070312 118.03125 231.617188 135.65625 209.347656 127.839844 C 187.082031 120.023438 180.519531 111.71875 166.203125 130.285156 C 151.886719 148.847656 153.484375 148.847656 140.761719 149.824219 C 140.761719 149.824219 149.203125 133.703125 158.355469 119.046875 C 167.507812 104.390625 177 93.644531 177 93.644531 L 258.992188 93.644531 L 248.070312 118.03125 " fill-opacity="1" fill-rule="nonzero"/><path fill="#1eaf9a" d="M 246.0625 61.835938 C 246.0625 61.835938 255.363281 117.058594 233.339844 127.808594 L 242.851562 123.402344 C 269.960938 115.519531 257.671875 56.539062 257.671875 56.539062 L 245.363281 59.9375 L 246.0625 61.835938 " fill-opacity="1" fill-rule="nonzero"/></svg>