<svg xmlns="http://www.w3.org/2000/svg" xmlns:xlink="http://www.w3.org/1999/xlink" width="1366" zoomAndPan="magnify" viewBox="0 0 1024.5 576" height="768" preserveAspectRatio="xMidYMid meet" version="1.0"><path stroke-linecap="round" transform="matrix(0.4144, 0.00540309, -0.00540309, 0.4144, 713.378643, 296.413246)" fill-opacity="1" fill="#ffffff" fill-rule="nonzero" stroke-linejoin="round" d="M 186.455452 44.334661 C 186.455452 44.334661 186.449309 -44.338251 186.449309 -44.338251 C 186.449309 -44.338251 139.383918 -44.337304 139.383918 -44.337304 C 136.867366 -52.269697 133.685348 -59.910625 129.904698 -67.194976 C 129.904698 -67.194976 163.197696 -100.498491 163.197696 -100.498491 C 163.197696 -100.498491 100.506147 -163.195354 100.506147 -163.195354 C 100.506147 -163.195354 67.203724 -129.891716 67.203724 -129.891716 C 59.924248 -133.689856 52.275772 -136.870477 44.32476 -139.396741 C 44.32476 -139.396741 44.333238 -186.462255 44.333238 -186.462255 C 44.333238 -186.462255 -44.330372 -186.46566 -44.330372 -186.46566 C -44.330372 -186.46566 -44.329302 -139.390844 -44.329302 -139.390844 C -52.280544 -136.874046 -59.921472 -133.692028 -67.205577 -129.892528 C -67.205577 -129.892528 -100.509215 -163.194951 -100.509215 -163.194951 C -100.509215 -163.194951 -163.196531 -100.4941 -163.196531 -100.4941 C -163.196531 -100.4941 -129.90244 -67.200979 -129.90244 -67.200979 C -133.681608 -59.912324 -136.862352 -52.273273 -139.388738 -44.331686 C -139.388738 -44.331686 -186.454252 -44.340164 -186.454252 -44.340164 C -186.454252 -44.340164 -186.457534 44.332871 -186.457534 44.332871 C -186.457534 44.332871 -139.382596 44.341226 -139.382596 44.341226 C -136.866043 52.273619 -133.702875 59.914792 -129.903375 67.198897 C -129.903375 67.198897 -163.196496 100.492987 -163.196496 100.492987 C -163.196496 100.492987 -100.504947 163.189851 -100.504947 163.189851 C -100.504947 163.189851 -67.211826 129.89576 -67.211826 129.89576 C -59.922925 133.693778 -52.274449 136.874399 -44.323561 139.391237 C -44.323561 139.391237 -44.322491 186.466053 -44.322491 186.466053 C -44.322491 186.466053 44.331572 186.460156 44.331572 186.460156 C 44.331572 186.460156 44.330625 139.394765 44.330625 139.394765 C 52.281867 136.877967 59.922795 133.695949 67.206899 129.89645 C 67.206899 129.89645 100.50099 163.18957 100.50099 163.18957 C 100.50099 163.18957 163.197853 100.498022 163.197853 100.498022 C 163.197853 100.498022 129.90364 67.195476 129.90364 67.195476 C 133.70178 59.916 136.863552 52.26777 139.380636 44.33573 C 139.380636 44.33573 186.455452 44.334661 186.455452 44.334661 Z M 66.199804 3.493773 C 65.386292 19.18028 59.124015 33.391919 49.284352 44.341579 C 47.713947 46.077637 46.066915 47.720431 44.324653 49.289057 C 33.38653 59.131311 19.149462 65.378036 3.493639 66.19487 C 2.334895 66.247683 1.175906 66.281647 -0.00242416 66.278158 C -1.171207 66.28397 -2.331179 66.242537 -3.491274 66.191679 C -19.149507 65.377798 -33.37975 59.134616 -44.329409 49.294954 C -46.065467 47.724548 -47.717686 46.077639 -49.286312 44.335377 C -59.119265 33.387707 -65.38447 19.179158 -66.201673 3.495061 C -66.254486 2.336318 -66.288327 1.186753 -66.284838 0.00842288 C -66.290773 -1.169784 -66.249217 -2.320332 -66.198604 -3.499277 C -65.38497 -19.176358 -59.122692 -33.387998 -49.28303 -44.337657 C -47.712624 -46.073715 -46.065715 -47.725934 -44.323454 -49.29456 C -33.385208 -59.12739 -19.148139 -65.374114 -3.492316 -66.190948 C -2.333573 -66.243762 -1.174584 -66.277725 0.00362366 -66.283661 C 1.172529 -66.280049 2.332379 -66.24804 3.492474 -66.197182 C 19.150829 -65.373877 33.381072 -59.130695 44.330732 -49.291032 C 46.06679 -47.720627 47.719009 -46.073718 49.27821 -44.331333 C 59.120464 -33.39321 65.385792 -19.175237 66.202872 -3.500565 C 66.255931 -2.322972 66.289895 -1.163982 66.286283 0.00492315 C 66.292219 1.18313 66.250785 2.343103 66.199804 3.493773 Z M 66.199804 3.493773 " stroke="#c2450f" stroke-width="2" stroke-opacity="1" stroke-miterlimit="4"/><path stroke-linecap="round" transform="matrix(0.4144, 0.00540309, -0.00540309, 0.4144, 529.544226, 224.927317)" fill-opacity="1" fill="#ffffff" fill-rule="nonzero" stroke-linejoin="round" d="M 186.451833 44.338459 C 186.451833 44.338459 186.455115 -44.334576 186.455115 -44.334576 C 186.455115 -44.334576 139.389724 -44.333629 139.389724 -44.333629 C 136.863747 -52.265899 133.681606 -59.916251 129.900956 -67.200602 C 129.900956 -67.200602 163.203501 -100.494815 163.203501 -100.494815 C 163.203501 -100.494815 100.502528 -163.191555 100.502528 -163.191555 C 100.502528 -163.191555 67.209407 -129.897465 67.209407 -129.897465 C 59.920506 -133.695482 52.281455 -136.876226 44.330566 -139.393065 C 44.330566 -139.393065 44.329496 -186.467881 44.329496 -186.467881 C 44.329496 -186.467881 -44.324566 -186.461984 -44.324566 -186.461984 C -44.324566 -186.461984 -44.323619 -139.396593 -44.323619 -139.396593 C -52.274739 -136.87037 -59.925091 -133.688229 -67.209319 -129.898154 C -67.209319 -129.898154 -100.503409 -163.191275 -100.503409 -163.191275 C -100.503409 -163.191275 -163.200273 -100.499726 -163.200273 -100.499726 C -163.200273 -100.499726 -129.906059 -67.197181 -129.906059 -67.197181 C -133.685227 -59.908525 -136.865971 -52.269474 -139.383056 -44.337435 C -139.383056 -44.337435 -186.457871 -44.336365 -186.457871 -44.336365 C -186.457871 -44.336365 -186.451729 44.336547 -186.451729 44.336547 C -186.451729 44.336547 -139.386338 44.3356 -139.386338 44.3356 C -136.860361 52.26787 -133.697192 59.909043 -129.906994 67.202696 C -129.906994 67.202696 -163.200115 100.496786 -163.200115 100.496786 C -163.200115 100.496786 -100.508566 163.193649 -100.508566 163.193649 C -100.508566 163.193649 -67.206021 129.899436 -67.206021 129.899436 C -59.917243 133.688029 -52.278069 136.878197 -44.32718 139.395036 C -44.32718 139.395036 -44.326233 186.460427 -44.326233 186.460427 C -44.326233 186.460427 44.327952 186.463955 44.327952 186.463955 C 44.327952 186.463955 44.326883 139.389139 44.326883 139.389139 C 52.278125 136.872341 59.919053 133.690323 67.212582 129.890701 C 67.212582 129.890701 100.506795 163.193246 100.506795 163.193246 C 100.506795 163.193246 163.203536 100.492273 163.203536 100.492273 C 163.203536 100.492273 129.909445 67.199152 129.909445 67.199152 C 133.698038 59.910374 136.869357 52.271445 139.386442 44.339406 C 139.386442 44.339406 186.451833 44.338459 186.451833 44.338459 Z M 66.20561 3.497449 C 65.38255 19.174654 59.120396 33.395718 49.28061 44.335953 C 47.719629 46.071888 46.063296 47.72423 44.330459 49.292733 C 33.382788 59.125685 19.155145 65.372287 3.49002 66.198668 C 2.331153 66.242057 1.172164 66.276021 0.00338148 66.281834 C -1.174949 66.278344 -2.334798 66.246336 -3.485469 66.195354 C -19.153126 65.381597 -33.383492 59.12899 -44.323727 49.289205 C -46.059662 47.728224 -47.712004 46.07189 -49.280506 44.339053 C -59.122884 33.391506 -65.388212 19.173532 -66.205292 3.49886 C -66.24868 2.339993 -66.282644 1.181004 -66.288457 0.0122216 C -66.284968 -1.166109 -66.252959 -2.325958 -66.202223 -3.495478 C -65.388589 -19.17256 -59.117009 -33.393747 -49.277224 -44.333982 C -47.716243 -46.069917 -46.05991 -47.722259 -44.327073 -49.290761 C -33.379525 -59.133139 -19.151881 -65.37974 -3.486634 -66.196697 C -2.32789 -66.24951 -1.178326 -66.283351 0.00000462433 -66.279862 C 1.178335 -66.276373 2.32876 -66.244242 3.488855 -66.193383 C 19.156512 -65.379626 33.386878 -59.127019 44.327113 -49.287234 C 46.063048 -47.726253 47.71539 -46.069919 49.283893 -44.337082 C 59.12627 -33.389534 65.391475 -19.180986 66.208678 -3.496889 C 66.252189 -2.328598 66.286153 -1.169608 66.292089 0.00859894 C 66.2886 1.186929 66.256468 2.337354 66.20561 3.497449 Z M 66.20561 3.497449 " stroke="#c2450f" stroke-width="2" stroke-opacity="1" stroke-miterlimit="4"/><path stroke-linecap="butt" transform="matrix(0.414435, 0, 0, 0.414435, 688.369553, 132.40907)" fill-opacity="1" fill="#c2450f" fill-rule="nonzero" stroke-linejoin="miter" d="M 69.177285 63.963902 C 69.177285 63.963902 -69.179277 63.963902 -69.179277 63.963902 C -78.623604 63.963902 -86.286516 56.30099 -86.286516 46.856663 C -86.286516 46.856663 -86.286516 -46.851419 -86.286516 -46.851419 C -86.286516 -56.305171 -78.623604 -63.958658 -69.179277 -63.958658 C -69.179277 -63.958658 69.177285 -63.958658 69.177285 -63.958658 C 78.621612 -63.958658 86.284524 -56.305171 86.284524 -46.851419 C 86.284524 -46.851419 86.284524 46.856663 86.284524 46.856663 C 86.284524 56.30099 78.621612 63.963902 69.177285 63.963902 Z M 69.177285 63.963902 " stroke="#c2450f" stroke-width="2" stroke-opacity="1" stroke-miterlimit="10"/><path stroke-linecap="butt" transform="matrix(0.414435, 0, 0, 0.414435, 682.961945, 127.001514)" fill-opacity="1" fill="#ffffff" fill-rule="nonzero" stroke-linejoin="miter" d="M 69.180563 63.957627 C 69.180563 63.957627 -69.175999 63.957627 -69.175999 63.957627 C -78.620325 63.957627 -86.283237 56.304141 -86.283237 46.859814 C -86.283237 46.859814 -86.283237 -46.857693 -86.283237 -46.857693 C -86.283237 -56.30202 -78.620325 -63.964932 -69.175999 -63.964932 C -69.175999 -63.964932 69.180563 -63.964932 69.180563 -63.964932 C 78.62489 -63.964932 86.278376 -56.30202 86.278376 -46.857693 C 86.278376 -46.857693 86.278376 46.859814 86.278376 46.859814 C 86.278376 56.304141 78.62489 63.957627 69.180563 63.957627 Z M 69.180563 63.957627 " stroke="#c2450f" stroke-width="2" stroke-opacity="1" stroke-miterlimit="10"/><path stroke-linecap="round" transform="matrix(0.414435, 0, 0, 0.414435, 682.962353, 127.001514)" fill="none" stroke-linejoin="round" d="M 52.826378 36.020517 C 52.826378 36.020517 -53.926562 33.984614 -53.926562 33.984614 C -53.926562 33.984614 -52.823782 -36.018396 -52.823782 -36.018396 C -52.823782 -36.018396 53.919734 -33.982493 53.919734 -33.982493 C 53.919734 -33.982493 52.826378 36.020517 52.826378 36.020517 Z M 52.826378 36.020517 " stroke="#c2450f" stroke-width="2" stroke-opacity="1" stroke-miterlimit="4"/><path stroke-linecap="round" transform="matrix(0.414435, 0, 0, 0.414435, 683.188658, 119.537948)" fill="none" stroke-linejoin="round" d="M -53.369839 -18.009395 C -53.369839 -18.009395 -0.549472 18.005349 -0.549472 18.005349 C -0.549472 18.005349 53.373676 -15.973492 53.373676 -15.973492 " stroke="#c2450f" stroke-width="2" stroke-opacity="1" stroke-miterlimit="4"/><path stroke-linecap="round" transform="matrix(0.414435, 0, 0, 0.414435, 669.424848, 132.432276)" fill="none" stroke-linejoin="round" d="M -21.261622 20.880609 C -21.261622 20.880609 21.2567 -20.883675 21.2567 -20.883675 " stroke="#c2450f" stroke-width="2" stroke-opacity="1" stroke-miterlimit="4"/><path stroke-linecap="round" transform="matrix(0.414435, 0, 0, 0.414435, 696.32172, 132.944517)" fill="none" stroke-linejoin="round" d="M 20.591269 21.680514 C 20.591269 21.680514 -20.588636 -21.676675 -20.588636 -21.676675 " stroke="#c2450f" stroke-width="2" stroke-opacity="1" stroke-miterlimit="4"/><path stroke-linecap="butt" transform="matrix(0.414435, 0, 0, 0.414435, 809.792025, 176.913691)" fill-opacity="1" fill="#c2450f" fill-rule="nonzero" stroke-linejoin="miter" d="M 69.175845 63.962177 C 69.175845 63.962177 -69.171291 63.962177 -69.171291 63.962177 C -78.625043 63.962177 -86.27853 56.299265 -86.27853 46.854938 C -86.27853 46.854938 -86.27853 -46.853144 -86.27853 -46.853144 C -86.27853 -56.306896 -78.625043 -63.960383 -69.171291 -63.960383 C -69.171291 -63.960383 69.175845 -63.960383 69.175845 -63.960383 C 78.620172 -63.960383 86.283084 -56.306896 86.283084 -46.853144 C 86.283084 -46.853144 86.283084 46.854938 86.283084 46.854938 C 86.283084 56.299265 78.620172 63.962177 69.175845 63.962177 Z M 69.175845 63.962177 " stroke="#c2450f" stroke-width="2" stroke-opacity="1" stroke-miterlimit="10"/><path stroke-linecap="butt" transform="matrix(0.414435, 0, 0, 0.414435, 804.384464, 172.046953)" fill-opacity="1" fill="#ffffff" fill-rule="nonzero" stroke-linejoin="miter" d="M 69.179008 63.961091 C 69.179008 63.961091 -69.177554 63.961091 -69.177554 63.961091 C -78.621881 63.961091 -86.284793 56.307604 -86.284793 46.853852 C -86.284793 46.853852 -86.284793 -46.85423 -86.284793 -46.85423 C -86.284793 -56.298557 -78.621881 -63.961469 -69.177554 -63.961469 C -69.177554 -63.961469 69.179008 -63.961469 69.179008 -63.961469 C 78.623335 -63.961469 86.286247 -56.298557 86.286247 -46.85423 C 86.286247 -46.85423 86.286247 46.853852 86.286247 46.853852 C 86.286247 56.307604 78.623335 63.961091 69.179008 63.961091 Z M 69.179008 63.961091 " stroke="#c2450f" stroke-width="2" stroke-opacity="1" stroke-miterlimit="10"/><path fill="#c2450f" d="M 819.578125 175.84375 C 819.578125 175.84375 796.40625 175.84375 796.40625 175.84375 C 796.078125 175.84375 795.8125 175.578125 795.8125 175.253906 C 795.8125 174.925781 796.078125 174.660156 796.40625 174.660156 C 796.40625 174.660156 819.078125 174.660156 819.078125 174.660156 C 819.078125 174.660156 821.632812 160.355469 821.632812 160.355469 C 821.632812 160.355469 794.222656 160.355469 794.222656 160.355469 C 793.894531 160.355469 793.625 160.09375 793.625 159.765625 C 793.625 159.4375 793.894531 159.175781 794.222656 159.175781 C 794.222656 159.175781 822.34375 159.175781 822.34375 159.175781 C 822.519531 159.175781 822.691406 159.25 822.804688 159.386719 C 822.917969 159.519531 822.964844 159.695312 822.933594 159.871094 C 822.933594 159.871094 820.167969 175.355469 820.167969 175.355469 C 820.117188 175.640625 819.867188 175.84375 819.578125 175.84375 Z M 819.578125 175.84375 " fill-opacity="1" fill-rule="nonzero"/><path fill="#c2450f" d="M 818.8125 181.261719 C 818.8125 181.261719 818.808594 181.261719 818.808594 181.261719 C 818.808594 181.261719 796.742188 181.1875 796.742188 181.1875 C 796.441406 181.1875 796.1875 180.964844 796.152344 180.671875 C 796.152344 180.671875 792.984375 156.234375 792.984375 156.234375 C 792.984375 156.234375 786.421875 156.234375 786.421875 156.234375 C 786.09375 156.234375 785.828125 155.96875 785.828125 155.644531 C 785.828125 155.316406 786.09375 155.050781 786.421875 155.050781 C 786.421875 155.050781 793.511719 155.050781 793.511719 155.050781 C 793.8125 155.050781 794.066406 155.273438 794.101562 155.570312 C 794.101562 155.570312 797.269531 180.003906 797.269531 180.003906 C 797.269531 180.003906 818.8125 180.078125 818.8125 180.078125 C 819.144531 180.082031 819.410156 180.34375 819.40625 180.671875 C 819.40625 181 819.140625 181.261719 818.8125 181.261719 Z M 818.8125 181.261719 " fill-opacity="1" fill-rule="nonzero"/><path fill="#c2450f" d="M 800.34375 189.042969 C 798.5 189.042969 797 187.554688 797 185.730469 C 797 183.902344 798.5 182.414062 800.34375 182.414062 C 802.1875 182.414062 803.6875 183.902344 803.6875 185.730469 C 803.6875 187.554688 802.1875 189.042969 800.34375 189.042969 Z M 800.34375 183.597656 C 799.15625 183.597656 798.191406 184.554688 798.191406 185.730469 C 798.191406 186.902344 799.15625 187.859375 800.34375 187.859375 C 801.53125 187.859375 802.492188 186.902344 802.492188 185.730469 C 802.492188 184.554688 801.53125 183.597656 800.34375 183.597656 Z M 800.34375 183.597656 " fill-opacity="1" fill-rule="nonzero"/><path fill="#c2450f" d="M 815.574219 189.042969 C 813.730469 189.042969 812.230469 187.554688 812.230469 185.730469 C 812.230469 183.902344 813.730469 182.414062 815.574219 182.414062 C 817.417969 182.414062 818.917969 183.902344 818.917969 185.730469 C 818.917969 187.554688 817.417969 189.042969 815.574219 189.042969 Z M 815.574219 183.597656 C 814.390625 183.597656 813.425781 184.554688 813.425781 185.730469 C 813.425781 186.902344 814.390625 187.859375 815.574219 187.859375 C 816.761719 187.859375 817.726562 186.902344 817.726562 185.730469 C 817.726562 184.554688 816.761719 183.597656 815.574219 183.597656 Z M 815.574219 183.597656 " fill-opacity="1" fill-rule="nonzero"/><path fill="#c2450f" d="M 803.5625 175.84375 C 803.25 175.84375 802.984375 175.601562 802.964844 175.289062 C 802.964844 175.289062 802.023438 160.300781 802.023438 160.300781 C 802.003906 159.976562 802.253906 159.695312 802.582031 159.675781 C 802.9375 159.664062 803.195312 159.902344 803.214844 160.230469 C 803.214844 160.230469 804.15625 175.214844 804.15625 175.214844 C 804.179688 175.542969 803.929688 175.824219 803.597656 175.84375 C 803.585938 175.84375 803.574219 175.84375 803.5625 175.84375 Z M 803.5625 175.84375 " fill-opacity="1" fill-rule="nonzero"/><path fill="#c2450f" d="M 812.035156 175.84375 C 812.023438 175.84375 812.011719 175.84375 812 175.84375 C 811.671875 175.824219 811.417969 175.546875 811.4375 175.21875 C 811.4375 175.21875 812.285156 160.234375 812.285156 160.234375 C 812.300781 159.90625 812.554688 159.664062 812.914062 159.675781 C 813.242188 159.695312 813.492188 159.972656 813.476562 160.296875 C 813.476562 160.296875 812.628906 175.285156 812.628906 175.285156 C 812.613281 175.601562 812.347656 175.84375 812.035156 175.84375 Z M 812.035156 175.84375 " fill-opacity="1" fill-rule="nonzero"/><path fill="#c2450f" d="M 795.082031 168.351562 C 794.753906 168.351562 794.488281 168.089844 794.484375 167.765625 C 794.480469 167.4375 794.746094 167.171875 795.074219 167.167969 C 795.074219 167.167969 820.957031 166.917969 820.957031 166.917969 C 821.335938 166.910156 821.554688 167.175781 821.558594 167.503906 C 821.5625 167.832031 821.296875 168.097656 820.96875 168.101562 C 820.96875 168.101562 795.085938 168.351562 795.085938 168.351562 C 795.085938 168.351562 795.082031 168.351562 795.082031 168.351562 Z M 795.082031 168.351562 " fill-opacity="1" fill-rule="nonzero"/><path stroke-linecap="butt" transform="matrix(0.414435, 0, 0, 0.414435, 895.575164, 267.838892)" fill-opacity="1" fill="#c2450f" fill-rule="nonzero" stroke-linejoin="miter" d="M 69.180714 63.963576 C 69.180714 63.963576 -69.175848 63.963576 -69.175848 63.963576 C -78.620175 63.963576 -86.283087 56.300664 -86.283087 46.856337 C -86.283087 46.856337 -86.283087 -46.851745 -86.283087 -46.851745 C -86.283087 -56.305498 -78.620175 -63.958984 -69.175848 -63.958984 C -69.175848 -63.958984 69.180714 -63.958984 69.180714 -63.958984 C 78.625041 -63.958984 86.278527 -56.305498 86.278527 -46.851745 C 86.278527 -46.851745 86.278527 46.856337 86.278527 46.856337 C 86.278527 56.300664 78.625041 63.963576 69.180714 63.963576 Z M 69.180714 63.963576 " stroke="#c2450f" stroke-width="2" stroke-opacity="1" stroke-miterlimit="10"/><path stroke-linecap="butt" transform="matrix(0.414435, 0, 0, 0.414435, 890.167603, 262.431336)" fill-opacity="1" fill="#ffffff" fill-rule="nonzero" stroke-linejoin="miter" d="M 69.174451 63.957301 C 69.174451 63.957301 -69.172685 63.957301 -69.172685 63.957301 C -78.626438 63.957301 -86.279924 56.303815 -86.279924 46.859488 C -86.279924 46.859488 -86.279924 -46.85802 -86.279924 -46.85802 C -86.279924 -56.302347 -78.626438 -63.965259 -69.172685 -63.965259 C -69.172685 -63.965259 69.174451 -63.965259 69.174451 -63.965259 C 78.628203 -63.965259 86.28169 -56.302347 86.28169 -46.85802 C 86.28169 -46.85802 86.28169 46.859488 86.28169 46.859488 C 86.28169 56.303815 78.628203 63.957301 69.174451 63.957301 Z M 69.174451 63.957301 " stroke="#c2450f" stroke-width="2" stroke-opacity="1" stroke-miterlimit="10"/><path stroke-linecap="round" transform="matrix(0.414435, 0, 0, 0.414435, 890.167603, 262.431336)" fill="none" stroke-linejoin="round" d="M 41.312744 -0.00397884 C 41.312744 22.815098 22.810535 41.307882 0.000882838 41.307882 C -22.818194 41.307882 -41.310978 22.815098 -41.310978 -0.00397884 C -41.310978 -22.813631 -22.818194 -41.306415 0.000882838 -41.306415 C 22.810535 -41.306415 41.312744 -22.813631 41.312744 -0.00397884 Z M 41.312744 -0.00397884 " stroke="#c2450f" stroke-width="2" stroke-opacity="1" stroke-miterlimit="4"/><path stroke-linecap="round" transform="matrix(0.414435, 0, 0, 0.414435, 890.118307, 262.431336)" fill="none" stroke-linejoin="round" d="M 0.440296 -41.306415 C 29.319955 -41.306415 29.319955 41.307882 0.440296 41.307882 C -29.315931 41.307882 -29.315931 -41.306415 0.440296 -41.306415 Z M 0.440296 -41.306415 " stroke="#c2450f" stroke-width="2" stroke-opacity="1" stroke-miterlimit="4"/><path stroke-linecap="round" transform="matrix(0.414435, 0, 0, 0.414435, 852.337155, 233.851038)" fill="none" stroke-linejoin="round" d="M 91.603262 27.655612 C 91.603262 27.655612 91.603262 110.269909 91.603262 110.269909 " stroke="#c2450f" stroke-width="2" stroke-opacity="1" stroke-miterlimit="4"/><path stroke-linecap="round" transform="matrix(0.414435, 0, 0, 0.414435, 852.337155, 233.851038)" fill="none" stroke-linejoin="round" d="M 49.970935 68.958048 C 49.970935 68.958048 132.594657 68.958048 132.594657 68.958048 " stroke="#c2450f" stroke-width="2" stroke-opacity="1" stroke-miterlimit="4"/><path stroke-linecap="round" transform="matrix(0.414435, -0.0000842276, 0.0000842276, 0.414435, 575.842444, 389.084568)" fill-opacity="1" fill="#cf005d" fill-rule="nonzero" stroke-linejoin="round" d="M 214.789806 -41.010416 C 214.789806 -41.010416 208.006345 176.69785 208.006345 176.69785 C 208.006345 176.69785 206.357365 220.723913 206.357365 220.723913 C 206.357365 220.723913 206.338349 221.5345 206.338349 221.5345 C 206.338349 221.5345 206.15943 220.723872 206.15943 220.723872 C 206.15943 220.723872 -158.771279 196.76555 -158.771279 196.76555 C -158.771279 196.76555 -175.403165 176.695331 -175.403165 176.695331 C -175.403165 176.695331 -205.544019 -64.141131 -205.544019 -64.141131 C -216.026963 -147.964019 -145.537727 -221.534384 -54.751543 -221.534784 C -54.751543 -221.534784 26.090765 -221.537205 26.090765 -221.537205 C 89.609047 -221.533721 145.62816 -192.425892 179.824169 -147.930696 C 202.901058 -117.905865 216.032641 -80.85165 214.789806 -41.010416 Z M 214.789806 -41.010416 " stroke="#c2450f" stroke-width="2" stroke-opacity="1" stroke-miterlimit="4"/><path stroke-linecap="round" transform="matrix(0.414435, -0.0000842276, 0.0000842276, 0.414435, 662.830587, 400.173763)" fill-opacity="1" fill="#d4d4d4" fill-rule="nonzero" stroke-linejoin="round" d="M 61.20139 193.927626 C 61.20139 193.927626 -3.532778 193.923896 -3.532778 193.923896 C -3.532778 193.923896 -3.551793 194.734483 -3.551793 194.734483 C -3.551793 194.734483 -3.730713 193.923855 -3.730713 193.923855 C -3.730713 193.923855 -14.938081 149.895179 -14.938081 149.895179 C -14.938081 149.895179 -59.280039 -59.755269 -59.280039 -59.755269 C -61.203766 -101.557646 -49.978062 -147.749622 -30.065973 -174.730713 C -23.26833 -183.956872 -15.462617 -190.939563 -6.809258 -194.736272 C 13.18884 -134.767329 33.548486 1.32183 53.971575 149.890333 C 56.380934 167.422208 58.792085 176.131838 61.20139 193.927626 Z M 61.20139 193.927626 " stroke="#c2450f" stroke-width="2" stroke-opacity="1" stroke-miterlimit="4"/><path stroke-linecap="round" transform="matrix(0.414435, -0.0000842276, 0.0000842276, 0.414435, 593.689253, 386.612999)" fill-opacity="1" fill="#d4d4d4" fill-rule="nonzero" stroke-linejoin="round" d="M 161.213763 -162.028188 C 130.348859 -179.396188 100.21866 -194.388818 71.529602 -204.677843 C 71.529602 -204.677843 -61.472134 -210.360159 -61.472134 -210.360159 C -96.123177 -195.635182 -129.662589 -178.072912 -161.214261 -155.42048 C -161.214261 -155.42048 -79.492612 201.953625 -79.492612 201.953625 C 9.92517 210.360471 81.191599 208.367328 125.589118 191.014625 C 125.589118 191.014625 161.213763 -162.028188 161.213763 -162.028188 Z M 161.213763 -162.028188 " stroke="#c2450f" stroke-width="2" stroke-opacity="1" stroke-miterlimit="4"/><path stroke-linecap="butt" transform="matrix(0.414435, -0.0000842276, 0.0000842276, 0.414435, 593.156497, 293.961943)" fill-opacity="1" fill="#ffffff" fill-rule="nonzero" stroke-linejoin="miter" d="M -46.426327 -66.866762 C -46.426327 -66.866762 -39.78442 -5.467862 -39.78442 -5.467862 C -39.78442 -5.467862 24.303541 66.86684 24.303541 66.86684 C 24.303541 66.86684 46.434375 21.393416 46.434375 21.393416 C 46.434375 21.393416 44.137204 -37.996975 44.137204 -37.996975 C 44.137204 -37.996975 -46.426327 -66.866762 -46.426327 -66.866762 Z M -46.426327 -66.866762 " stroke="#c2450f" stroke-width="2" stroke-opacity="1" stroke-miterlimit="10"/><path stroke-linecap="round" transform="matrix(0.414435, -0.0000842276, 0.0000842276, 0.414435, 582.081511, 306.220274)" fill-opacity="1" fill="#d4d4d4" fill-rule="nonzero" stroke-linejoin="round" d="M 51.032628 37.293877 C 51.032628 37.293877 18.706563 20.971808 18.706563 20.971808 C 18.706563 20.971808 1.980509 46.850766 1.980509 46.850766 C 1.980509 46.850766 -51.033897 -18.695343 -51.033897 -18.695343 C -51.033897 -18.695343 -27.162969 -46.363689 -27.162969 -46.363689 C -27.162969 -46.363689 -14.334797 -46.851207 -14.334797 -46.851207 C -14.334797 -46.851207 -13.055333 -35.040825 -13.055333 -35.040825 C -13.055333 -35.040825 51.032628 37.293877 51.032628 37.293877 Z M 51.032628 37.293877 " stroke="#c2450f" stroke-width="2" stroke-opacity="1" stroke-miterlimit="4"/><path stroke-linecap="round" transform="matrix(0.414435, -0.0000842276, 0.0000842276, 0.414435, 613.275142, 309.608153)" fill-opacity="1" fill="#d4d4d4" fill-rule="nonzero" stroke-linejoin="round" d="M -24.233501 29.103894 C -24.233501 29.103894 -2.778111 14.310257 -2.778111 14.310257 C -2.778111 14.310257 22.524485 37.963919 22.524485 37.963919 C 22.524485 37.963919 24.232624 -18.880779 24.232624 -18.880779 C 24.232624 -18.880779 -2.946571 -37.963466 -2.946571 -37.963466 C -2.946571 -37.963466 -2.102667 -16.36953 -2.102667 -16.36953 C -2.102667 -16.36953 -24.233501 29.103894 -24.233501 29.103894 Z M -24.233501 29.103894 " stroke="#c2450f" stroke-width="2" stroke-opacity="1" stroke-miterlimit="4"/><path stroke-linecap="round" transform="matrix(0.414435, -0.0000842276, 0.0000842276, 0.414435, 601.444572, 325.4623)" fill-opacity="1" fill="#cf005d" fill-rule="nonzero" stroke-linejoin="round" d="M 20.525177 -20.320442 C 23.038406 -3.721668 21.753674 10.388008 16.567316 21.933162 C 16.567316 21.933162 -9.984458 22.955143 -9.984458 22.955143 C -18.106887 11.482688 -21.534461 -4.748679 -23.038836 -22.959004 C -23.038836 -22.959004 4.320513 -9.145121 4.320513 -9.145121 C 4.320513 -9.145121 20.525177 -20.320442 20.525177 -20.320442 Z M 20.525177 -20.320442 " stroke="#c2450f" stroke-width="2" stroke-opacity="1" stroke-miterlimit="4"/><path stroke-linecap="round" transform="matrix(0.414435, -0.0000842276, 0.0000842276, 0.414435, 605.876313, 397.738097)" fill-opacity="1" fill="#cf005d" fill-rule="nonzero" stroke-linejoin="round" d="M 5.899889 -152.464855 C 5.899889 -152.464855 30.767304 -28.137773 30.767304 -28.137773 C 27.409791 28.291869 19.046336 89.715996 9.353619 152.468845 C -6.620559 96.233209 -21.491438 37.443493 -30.760946 -34.323965 C -30.760946 -34.323965 -20.642459 -151.442873 -20.642459 -151.442873 C -20.642459 -151.442873 5.899889 -152.464855 5.899889 -152.464855 Z M 5.899889 -152.464855 " stroke="#c2450f" stroke-width="2" stroke-opacity="1" stroke-miterlimit="4"/><path stroke-linecap="round" transform="matrix(0.414435, -0.0000842276, 0.0000842276, 0.414435, 520.023417, 399.308433)" fill-opacity="1" fill="#d4d4d4" fill-rule="nonzero" stroke-linejoin="round" d="M 66.80439 -29.478349 C 66.80439 -29.478349 20.397223 136.956699 20.397223 136.956699 C 5.825011 185.428961 -72.929455 161.75501 -58.347818 113.282751 C -37.11784 1.802536 -11.469993 -96.499966 17.32406 -185.432905 C 55.717103 -154.207926 72.92702 -102.901563 66.80439 -29.478349 Z M 66.80439 -29.478349 " stroke="#c2450f" stroke-width="2" stroke-opacity="1" stroke-miterlimit="4"/><path stroke-linecap="round" transform="matrix(0.414435, -0.0000842276, 0.0000842276, 0.414435, 592.985941, 280.747678)" fill-opacity="1" fill="#c2450f" fill-rule="nonzero" stroke-linejoin="round" d="M 42.957336 1.013433 C 42.957336 1.013433 43.773074 22.060687 43.773074 22.060687 C -1.90332 24.709388 -25.444375 6.089289 -43.770667 -24.707466 C -14.018381 -5.313215 12.795477 2.666187 42.957336 1.013433 Z M 42.957336 1.013433 " stroke="#c2450f" stroke-width="2" stroke-opacity="1" stroke-miterlimit="4"/><path stroke-linecap="butt" transform="matrix(0.414435, -0.0000842276, 0.0000842276, 0.414435, 610.04639, 385.745971)" fill-opacity="1" fill="#ffffff" fill-rule="nonzero" stroke-linejoin="miter" d="M -57.683291 2.70311 C -46.765317 -13.402809 -32.332016 -27.660621 -16.268283 -41.050958 C -14.090629 -42.869632 -11.488923 -44.216946 -8.680045 -44.640522 C -4.117975 -45.327654 -0.913683 -43.507886 1.168556 -39.614742 C 4.221251 -33.911708 2.805991 -26.833463 -1.719176 -22.2159 C -1.719176 -22.2159 -17.764661 -5.856535 -17.764661 -5.856535 C -9.03633 -7.532495 -0.920398 -10.471594 6.733872 -14.325058 C 16.622207 -19.2997 24.079542 -28.073303 27.889545 -38.459403 C 27.927268 -38.563075 27.964993 -38.676173 28.002716 -38.779846 C 31.567524 -48.515638 44.989591 -49.446032 49.860702 -40.292905 C 50.426014 -39.227712 50.953615 -38.115398 51.443506 -36.965391 C 57.689598 -22.213251 54.641702 -5.153759 44.61046 7.323532 C 36.342226 17.614472 25.265471 26.575848 9.919391 33.491028 C 9.919391 33.491028 -37.060425 49.448237 -37.060425 49.448237 C -37.060425 49.448237 -57.683291 2.70311 -57.683291 2.70311 Z M -57.683291 2.70311 " stroke="#c2450f" stroke-width="2" stroke-opacity="1" stroke-miterlimit="10"/><path fill="#d4d4d4" d="M 521.582031 465.304688 C 505.484375 477.957031 484.421875 451.167969 500.519531 438.511719 C 500.519531 438.511719 586.980469 382.589844 586.980469 382.589844 C 586.980469 382.589844 599.539062 406.515625 599.539062 406.515625 C 599.539062 406.515625 521.582031 465.304688 521.582031 465.304688 Z M 521.582031 465.304688 " fill-opacity="1" fill-rule="nonzero"/><path stroke-linecap="butt" transform="matrix(0.414435, -0.0000842276, 0.0000842276, 0.414435, 560.558928, 423.945015)" fill="none" stroke-linejoin="miter" d="M 63.773391 -99.773836 C 63.773391 -99.773836 94.064562 -42.03664 94.064562 -42.03664 C 94.064562 -42.03664 -94.068484 99.778539 -94.068484 99.778539 " stroke="#c2450f" stroke-width="2" stroke-opacity="1" stroke-miterlimit="10"/><path stroke-linecap="round" transform="matrix(0.414435, -0.0000842276, 0.0000842276, 0.414435, 505.697201, 458.419333)" fill="none" stroke-linejoin="round" d="M -21.439105 -41.376063 C -38.329168 3.080475 0.68452 41.374687 38.325476 16.621611 " stroke="#c2450f" stroke-width="2" stroke-opacity="1" stroke-miterlimit="4"/><path stroke-linecap="round" transform="matrix(0.414435, -0.0000842276, 0.0000842276, 0.414435, 552.49476, 404.895457)" fill="none" stroke-linejoin="round" d="M -83.225243 53.800319 C -83.225243 53.800319 83.222256 -53.804788 83.222256 -53.804788 " stroke="#c2450f" stroke-width="2" stroke-opacity="1" stroke-miterlimit="4"/><path stroke-linecap="round" transform="matrix(0.414435, -0.0000842276, 0.0000842276, 0.414435, 633.172254, 216.330067)" fill-opacity="1" fill="#c2450f" fill-rule="nonzero" stroke-linejoin="round" d="M 7.631707 -36.4703 C 16.156977 -12.923729 12.212176 11.440325 -1.723764 36.471557 C -1.723764 36.471557 -16.159134 -31.847227 -16.159134 -31.847227 C -16.159134 -31.847227 7.631707 -36.4703 7.631707 -36.4703 Z M 7.631707 -36.4703 " stroke="#c2450f" stroke-width="2" stroke-opacity="1" stroke-miterlimit="4"/><path stroke-linecap="butt" transform="matrix(0.414435, -0.0000842276, 0.0000842276, 0.414435, 601.439295, 234.42455)" fill-opacity="1" fill="#ffffff" fill-rule="nonzero" stroke-linejoin="miter" d="M -73.727915 -12.246281 C -73.727915 -12.246281 -71.324088 32.506367 -71.324088 32.506367 C -71.324088 32.506367 -65.415787 86.129101 -65.415787 86.129101 C -28.896866 109.737914 9.189211 120.914844 50.145207 109.58432 C 58.911391 107.163754 65.765108 100.293975 68.217514 91.528781 C 79.017531 52.914801 78.359075 0.00947033 66.571955 -66.791273 C 32.707793 -120.909813 -37.362432 -114.825771 -79.013808 -67.471219 C -79.013808 -67.471219 -73.727915 -12.246281 -73.727915 -12.246281 Z M -73.727915 -12.246281 " stroke="#c2450f" stroke-width="2" stroke-opacity="1" stroke-miterlimit="10"/><path stroke-linecap="butt" transform="matrix(0.414435, -0.0000842276, 0.0000842276, 0.414435, 564.575623, 236.073613)" fill-opacity="1" fill="#ffffff" fill-rule="nonzero" stroke-linejoin="miter" d="M 15.222048 -16.207264 C 5.969089 -30.271955 -17.822922 -19.889916 -9.533354 3.977074 C -0.922509 23.857153 8.370027 28.694311 17.814034 30.270285 C 17.814034 30.270285 15.222048 -16.207264 15.222048 -16.207264 Z M 15.222048 -16.207264 " stroke="#c2450f" stroke-width="2" stroke-opacity="1" stroke-miterlimit="10"/><path stroke-linecap="round" transform="matrix(0.414435, -0.0000842276, 0.0000842276, 0.414435, 569.650466, 215.986979)" fill-opacity="1" fill="#c2450f" fill-rule="nonzero" stroke-linejoin="round" d="M 20.541973 -43.085959 C 39.142502 -16.709697 27.048089 37.182717 4.527607 52.042116 C 4.527607 52.042116 2.966999 32.257724 2.966999 32.257724 C -3.101818 26.40327 -9.538726 22.999365 -17.372541 29.124333 C -35.811615 -3.26535 -39.142651 -30.731864 -23.57686 -52.039702 C -23.57686 -52.039702 20.541973 -43.085959 20.541973 -43.085959 Z M 20.541973 -43.085959 " stroke="#c2450f" stroke-width="2" stroke-opacity="1" stroke-miterlimit="4"/><path stroke-linecap="round" transform="matrix(0.414435, -0.0000842276, 0.0000842276, 0.414435, 602.510564, 189.146021)" fill-opacity="1" fill="#c2450f" fill-rule="nonzero" stroke-linejoin="round" d="M 74.944821 -46.74815 C 102.874066 -8.041469 90.397876 22.880982 65.489971 51.406835 C 42.618942 28.771619 3.654309 27.36873 -49.970865 45.285087 C -49.970865 45.285087 -102.878866 12.709315 -102.878866 12.709315 C -100.107685 -34.115887 -49.168898 -51.410708 -8.615473 -29.770999 C 34.90809 -13.606888 63.374005 -18.417521 74.944821 -46.74815 Z M 74.944821 -46.74815 " stroke="#c2450f" stroke-width="2" stroke-opacity="1" stroke-miterlimit="4"/><path stroke-linecap="butt" transform="matrix(0.414435, -0.0000842276, 0.0000842276, 0.414435, 580.081919, 251.4311)" fill="none" stroke-linejoin="miter" d="M -25.254942 -24.910648 C -15.014279 -1.146942 -0.550072 18.036841 25.255483 24.913258 " stroke="#c2450f" stroke-width="4" stroke-opacity="1" stroke-miterlimit="10"/><path stroke-linecap="butt" transform="matrix(0.414435, -0.0000842276, 0.0000842276, 0.414435, 591.285027, 261.858918)" fill-opacity="1" fill="#c2450f" fill-rule="nonzero" stroke-linejoin="miter" d="M 2.326933 7.240341 C 2.326933 7.240341 -6.391197 5.098986 -6.391197 5.098986 C -9.105598 4.429225 -10.679156 1.987707 -9.90579 -0.359079 C -9.90579 -0.359079 -8.641995 -4.204417 -8.641995 -4.204417 C -7.868631 -6.541777 -5.04071 -7.907897 -2.326309 -7.238136 C -2.326309 -7.238136 6.391821 -5.096781 6.391821 -5.096781 C 9.106222 -4.427021 10.67978 -1.985503 9.906416 0.351858 C 9.906416 0.351858 8.642621 4.197195 8.642621 4.197195 C 7.869255 6.543982 5.041334 7.910101 2.326933 7.240341 Z M 2.326933 7.240341 " stroke="#c2450f" stroke-width="2" stroke-opacity="1" stroke-miterlimit="10"/><path stroke-linecap="butt" transform="matrix(0.414435, -0.0000842276, 0.0000842276, 0.414435, 569.235829, 237.666997)" fill-opacity="1" fill="#cf005d" fill-rule="nonzero" stroke-linejoin="miter" d="M 29.978931 -0.000988364 C 29.984991 16.559574 16.560386 29.978724 -0.000176225 29.984783 C -16.560737 29.981418 -29.979886 16.556813 -29.985946 -0.00374982 C -29.982582 -16.554885 -16.557975 -29.98346 0.00258523 -29.980094 C 16.563148 -29.986154 29.982297 -16.561549 29.978931 -0.000988364 Z M 29.978931 -0.000988364 " stroke="#c2450f" stroke-width="2" stroke-opacity="1" stroke-miterlimit="10"/><path stroke-linecap="butt" transform="matrix(0.414435, -0.0000842276, 0.0000842276, 0.414435, 584.983782, 207.932202)" fill-opacity="1" fill="#cf005d" fill-rule="nonzero" stroke-linejoin="miter" d="M -50.674338 68.073272 C -44.084265 13.501105 -28.549952 -38.43011 24.759393 -79.165609 C 40.519277 -81.565902 43.600875 -78.944993 52.55309 -69.168955 C -7.256467 -44.995339 -22.913607 8.387374 -32.474435 71.470142 C -34.352156 81.564445 -52.552061 78.177 -50.674338 68.073272 Z M -50.674338 68.073272 " stroke="#c2450f" stroke-width="2" stroke-opacity="1" stroke-miterlimit="10"/><path stroke-linecap="round" transform="matrix(0.414435, -0.0000842276, 0.0000842276, 0.414435, 619.321223, 239.77707)" fill="none" stroke-linejoin="round" d="M -5.895641 -33.969952 C -3.723434 -8.982574 2.511961 12.028079 12.763413 29.080849 C 3.648231 32.754932 -4.816093 33.969098 -12.761618 33.22287 " stroke="#c2450f" stroke-width="2" stroke-opacity="1" stroke-miterlimit="4"/><path stroke-linecap="round" transform="matrix(0.414435, -0.0000842276, 0.0000842276, 0.414435, 597.098925, 222.02386)" fill="none" stroke-linejoin="round" d="M 12.175678 -5.041175 C 1.157546 -6.268727 -6.958555 -2.500186 -12.172624 6.264447 " stroke="#c2450f" stroke-width="2" stroke-opacity="1" stroke-miterlimit="4"/><path stroke-linecap="round" transform="matrix(0.414435, -0.0000842276, 0.0000842276, 0.414435, 625.127973, 224.06755)" fill="none" stroke-linejoin="round" d="M 9.870092 3.119079 C 4.724618 -0.991475 -1.392085 -3.11345 -9.875549 -0.476041 " stroke="#c2450f" stroke-width="2" stroke-opacity="1" stroke-miterlimit="4"/><path stroke-linecap="round" transform="matrix(0.414435, -0.0000842276, 0.0000842276, 0.414435, 600.791323, 235.514228)" fill-opacity="1" fill="#c2450f" fill-rule="nonzero" stroke-linejoin="round" d="M -5.029272 0.190858 C -4.813607 5.704806 -2.392148 10.078719 0.388388 9.975604 C 3.159501 9.863061 5.234031 5.310978 5.027789 -0.193542 C 4.812124 -5.707489 2.390665 -10.081402 -0.389871 -9.978287 C -3.160984 -9.865745 -5.235514 -5.313661 -5.029272 0.190858 Z M -5.029272 0.190858 " stroke="#c2450f" stroke-width="2" stroke-opacity="1" stroke-miterlimit="4"/><path stroke-linecap="round" transform="matrix(0.414435, -0.0000842276, 0.0000842276, 0.414435, 625.418927, 232.095517)" fill-opacity="1" fill="#c2450f" fill-rule="nonzero" stroke-linejoin="round" d="M -3.970468 0.155162 C -3.80172 4.632297 -1.879647 8.195518 0.316508 8.101709 C 2.512661 8.017326 4.14402 4.322871 3.975271 -0.154264 C 3.806522 -4.631399 1.884449 -8.19462 -0.311704 -8.110237 C -2.507859 -8.016429 -4.148642 -4.321976 -3.970468 0.155162 Z M -3.970468 0.155162 " stroke="#c2450f" stroke-width="2" stroke-opacity="1" stroke-miterlimit="4"/><path stroke-linecap="round" transform="matrix(0.414435, -0.0000842276, 0.0000842276, 0.414435, 605.938227, 266.127911)" fill="none" stroke-linejoin="round" d="M 14.823638 4.341134 C 3.899622 3.792236 -6.222859 1.43381 -14.817721 -4.336328 " stroke="#c2450f" stroke-width="2" stroke-opacity="1" stroke-miterlimit="4"/><path stroke-linecap="round" transform="matrix(0.414435, 0, 0, 0.414435, 912.079252, 418.134979)" fill-opacity="1" fill="#ffffff" fill-rule="nonzero" stroke-linejoin="round" d="M 7.716745 -86.531097 C 8.159743 -89.556675 10.629217 -91.884768 13.673646 -92.158106 C 17.952812 -92.544551 21.459089 -88.812062 20.808731 -84.561173 C 20.808731 -84.561173 -8.212309 92.543521 -8.212309 92.543521 C -8.212309 92.543521 -21.455103 92.543521 -21.455103 92.543521 C -21.455103 92.543521 7.716745 -86.531097 7.716745 -86.531097 Z M 7.716745 -86.531097 " stroke="#c2450f" stroke-width="2" stroke-opacity="1" stroke-miterlimit="4"/><path stroke-linecap="round" transform="matrix(0.414435, 0, 0, 0.414435, 893.873098, 358.448835)" fill-opacity="1" fill="#ffffff" fill-rule="nonzero" stroke-linejoin="round" d="M 61.995944 59.664189 C 61.995944 59.664189 -57.622771 -71.745797 -57.622771 -71.745797 C -57.622771 -71.745797 -58.489915 -70.303699 -58.489915 -70.303699 C -58.489915 -70.303699 -64.296008 -60.699139 -64.296008 -60.699139 C -64.296008 -60.699139 52.184024 68.552413 52.184024 68.552413 C 55.058794 71.747649 60.167402 71.389481 62.580324 67.836076 C 64.29576 65.300623 64.050698 61.926303 61.995944 59.664189 Z M 61.995944 59.664189 " stroke="#c2450f" stroke-width="2" stroke-opacity="1" stroke-miterlimit="4"/><path stroke-linecap="round" transform="matrix(0.414435, 0, 0, 0.414435, 903.993615, 459.371668)" fill-opacity="1" fill="#d4d4d4" fill-rule="nonzero" stroke-linejoin="round" d="M -54.454418 8.660626 C -54.454418 8.660626 54.447531 8.660626 54.447531 8.660626 C 54.447531 8.660626 40.55438 -8.663398 4.294574 -8.663398 C -29.476907 -8.663398 -49.600298 1.271053 -54.454418 8.660626 Z M -54.454418 8.660626 " stroke="#c2450f" stroke-width="2" stroke-opacity="1" stroke-miterlimit="4"/><path stroke-linecap="round" transform="matrix(0.414435, 0, 0, 0.414435, 869.936573, 317.272606)" fill-opacity="1" fill="#d4d4d4" fill-rule="nonzero" stroke-linejoin="round" d="M 0.822252 6.778923 C 0.822252 6.778923 6.355007 -1.524921 6.355007 -1.524921 C 6.355007 -1.524921 -0.478463 -6.774911 -0.478463 -6.774911 C -0.478463 -6.774911 -6.35996 1.576061 -6.35996 1.576061 C -6.35996 1.576061 0.822252 6.778923 0.822252 6.778923 Z M 0.822252 6.778923 " stroke="#c2450f" stroke-width="2" stroke-opacity="1" stroke-miterlimit="4"/><path stroke-linecap="round" transform="matrix(0.414435, 0, 0, 0.414435, 852.940149, 338.472228)" fill-opacity="1" fill="#ffffff" fill-rule="nonzero" stroke-linejoin="round" d="M 51.211644 -39.369179 C 51.211644 -39.369179 27.374616 -56.646076 27.374616 -56.646076 C 27.374616 -56.646076 4.480135 -29.123687 4.480135 -29.123687 C -35.201119 -22.723788 -51.205577 2.244297 -51.205577 2.244297 C -51.205577 2.244297 19.84366 56.648145 19.84366 56.648145 C 44.170814 29.766687 32.643457 -8.642127 32.643457 -8.642127 C 32.643457 -8.642127 51.211644 -39.369179 51.211644 -39.369179 Z M 51.211644 -39.369179 " stroke="#c2450f" stroke-width="2" stroke-opacity="1" stroke-miterlimit="4"/><path stroke-linecap="round" transform="matrix(0.414435, 0, 0, 0.414435, 860.632906, 330.646019)" fill="none" stroke-linejoin="round" d="M -14.081887 -10.239656 C -14.081887 -10.239656 14.081435 10.241903 14.081435 10.241903 " stroke="#c2450f" stroke-width="2" stroke-opacity="1" stroke-miterlimit="4"/><path stroke-linecap="round" transform="matrix(0.414435, 0, 0, 0.414435, 646.880819, 459.268494)" fill-opacity="1" fill="#ffffff" fill-rule="nonzero" stroke-linejoin="round" d="M 110.301729 11.030309 C 110.301729 11.030309 -110.301536 11.030309 -110.301536 11.030309 C -110.301536 11.030309 -110.301536 -11.025305 -110.301536 -11.025305 C -110.301536 -11.025305 110.301729 -11.025305 110.301729 -11.025305 C 110.301729 -11.025305 110.301729 11.030309 110.301729 11.030309 Z M 110.301729 11.030309 " stroke="#c2450f" stroke-width="2" stroke-opacity="1" stroke-miterlimit="4"/><path stroke-linecap="round" transform="matrix(0.414435, 0, 0, 0.414435, 723.693488, 362.778441)" fill-opacity="1" fill="#ffffff" fill-rule="nonzero" stroke-linejoin="round" d="M -245.095675 160.927929 C -245.095675 160.927929 245.095053 160.927929 245.095053 160.927929 C 245.095053 160.927929 245.095053 -160.933224 245.095053 -160.933224 C 245.095053 -160.933224 -245.095675 -160.933224 -245.095675 -160.933224 C -245.095675 -160.933224 -245.095675 160.927929 -245.095675 160.927929 Z M -245.095675 160.927929 " stroke="#c2450f" stroke-width="2" stroke-opacity="1" stroke-miterlimit="4"/><path stroke-linecap="round" transform="matrix(0.414435, 0, 0, 0.414435, 618.489957, 362.778851)" fill-opacity="1" fill="#ffffff" fill-rule="nonzero" stroke-linejoin="round" d="M 8.752225 -160.934214 C 8.752225 -160.934214 -8.750884 -160.934214 -8.750884 -160.934214 C -8.750884 -160.934214 -8.750884 160.926939 -8.750884 160.926939 C -8.750884 160.926939 8.752225 160.926939 8.752225 160.926939 C 8.752225 160.926939 8.752225 -160.934214 8.752225 -160.934214 Z M 8.752225 -160.934214 " stroke="#c2450f" stroke-width="2" stroke-opacity="1" stroke-miterlimit="4"/><path stroke-linecap="round" transform="matrix(0.414435, 0, 0, 0.414435, 739.640209, 426.798758)" fill-opacity="1" fill="#ffffff" fill-rule="nonzero" stroke-linejoin="round" d="M -86.845332 -83.825302 C -86.845332 -83.825302 30.548971 -83.825302 30.548971 -83.825302 C 30.548971 -83.825302 86.847339 83.825639 86.847339 83.825639 C 86.847339 83.825639 -56.636681 83.825639 -56.636681 83.825639 C -56.636681 83.825639 -86.845332 -83.825302 -86.845332 -83.825302 Z M -86.845332 -83.825302 " stroke="#c2450f" stroke-width="2" stroke-opacity="1" stroke-miterlimit="4"/><path stroke-linecap="round" transform="matrix(0.414435, 0, 0, 0.414435, 705.994279, 426.798758)" fill-opacity="1" fill="#ffffff" fill-rule="nonzero" stroke-linejoin="round" d="M -5.660332 -83.825302 C -5.660332 -83.825302 -24.539561 -83.825302 -24.539561 -83.825302 C -24.539561 -83.825302 2.228791 83.825639 2.228791 83.825639 C 2.228791 83.825639 24.548318 83.825639 24.548318 83.825639 C 24.548318 83.825639 -5.660332 -83.825302 -5.660332 -83.825302 Z M -5.660332 -83.825302 " stroke="#c2450f" stroke-width="2" stroke-opacity="1" stroke-miterlimit="4"/><path stroke-linecap="round" transform="matrix(0.414435, 0, 0, 0.414435, 716.864094, 473.306659)" fill-opacity="1" fill="#c2450f" fill-rule="nonzero" stroke-linejoin="round" d="M -609.613469 26.518533 C -609.613469 26.518533 609.618974 26.518533 609.618974 26.518533 C 609.618974 26.518533 609.618974 -26.51862 609.618974 -26.51862 C 609.618974 -26.51862 -609.613469 -26.51862 -609.613469 -26.51862 C -609.613469 -26.51862 -609.613469 26.518533 -609.613469 26.518533 Z M -609.613469 26.518533 " stroke="#c2450f" stroke-width="2" stroke-opacity="1" stroke-miterlimit="4"/><path stroke-linecap="round" transform="matrix(0.414435, 0, 0, 0.414435, 937.47748, 473.305435)" fill-opacity="1" fill="#c2450f" fill-rule="nonzero" stroke-linejoin="round" d="M 77.296115 26.521485 C 77.296115 26.521485 -77.291116 26.521485 -77.291116 26.521485 C -77.291116 26.521485 -77.291116 -26.515668 -77.291116 -26.515668 C -77.291116 -26.515668 77.296115 -26.515668 77.296115 -26.515668 C 77.296115 -26.515668 77.296115 26.521485 77.296115 26.521485 Z M 77.296115 26.521485 " stroke="#c2450f" stroke-width="2" stroke-opacity="1" stroke-miterlimit="4"/></svg>