<svg xmlns="http://www.w3.org/2000/svg" xmlns:xlink="http://www.w3.org/1999/xlink" width="500" zoomAndPan="magnify" viewBox="0 0 375 374.999991" height="500" preserveAspectRatio="xMidYMid meet" version="1.0"><defs><clipPath id="99d5a982e9"><path d="M 99.535156 7 L 275.785156 7 L 275.785156 309 L 99.535156 309 Z M 99.535156 7 " clip-rule="nonzero"/></clipPath><clipPath id="648e5911df"><path d="M 143.015625 106.539062 L 232 106.539062 L 232 187.539062 L 143.015625 187.539062 Z M 143.015625 106.539062 " clip-rule="nonzero"/></clipPath><clipPath id="fe58fd1bba"><path d="M 149 106.539062 L 175 106.539062 L 175 132 L 149 132 Z M 149 106.539062 " clip-rule="nonzero"/></clipPath></defs><g clip-path="url(#99d5a982e9)"><path fill="#cf005d" d="M 180.285156 9.828125 C 175.679688 12.316406 173.574219 17.300781 171.003906 21.558594 C 141.171875 72.578125 124.738281 131.304688 123.730469 190.40625 C 109.253906 200.144531 99.960938 217.179688 99.910156 234.671875 C 99.894531 256.773438 99.667969 278.878906 99.800781 300.980469 C 100.027344 307.761719 109.742188 310.996094 113.96875 305.644531 C 123.859375 292.527344 133.304688 279.074219 143.085938 265.875 C 150.078125 256.832031 161.355469 251.273438 172.785156 251.308594 C 182.769531 251.246094 192.753906 251.265625 202.738281 251.222656 C 213.921875 251.265625 224.992188 256.617188 231.820312 265.519531 C 241.621094 278.722656 251.042969 292.214844 260.914062 305.371094 C 265.367188 310.835938 275.347656 307.027344 275.042969 299.980469 C 275.183594 278.214844 275.15625 256.4375 275.242188 234.667969 C 275.332031 217.179688 266.253906 200.039062 251.820312 190.179688 C 250.769531 128.589844 233.523438 67.1875 201.277344 14.617188 C 196.960938 7.777344 187.136719 5.664062 180.285156 9.828125 Z M 180.285156 9.828125 " fill-opacity="1" fill-rule="nonzero"/></g><path fill="#cf005d" d="M 195.820312 286.4375 C 196.148438 282.789062 193.914062 279.109375 190.425781 277.902344 C 186.253906 276.25 181.117188 278.699219 179.757812 282.984375 C 178.777344 296.445312 179.519531 310.070312 179.222656 323.59375 C 179.488281 328.230469 177.925781 333.945312 182.042969 337.371094 C 186.722656 341.890625 195.585938 338.269531 195.625 331.738281 C 195.804688 316.644531 195.722656 301.542969 195.820312 286.4375 Z M 195.820312 286.4375 " fill-opacity="1" fill-rule="nonzero"/><path fill="#cf005d" d="M 152.746094 283.628906 C 152.167969 308.410156 152.574219 333.238281 152.328125 358.042969 C 151.980469 361.765625 153.855469 365.753906 157.523438 367.070312 C 162.441406 369.320312 168.746094 365.246094 168.71875 359.835938 C 168.890625 335.355469 168.855469 310.863281 168.972656 286.378906 C 169.261719 282.714844 167.074219 278.988281 163.539062 277.785156 C 159.144531 276.070312 153.6875 278.980469 152.746094 283.628906 Z M 152.746094 283.628906 " fill-opacity="1" fill-rule="nonzero"/><path fill="#cf005d" d="M 206.792969 283.628906 C 206.214844 308.410156 206.625 333.238281 206.375 358.042969 C 206.027344 361.765625 207.902344 365.753906 211.574219 367.070312 C 216.488281 369.320312 222.792969 365.246094 222.765625 359.835938 C 222.9375 335.355469 222.902344 310.863281 223.019531 286.378906 C 223.3125 282.714844 221.125 278.988281 217.585938 277.785156 C 213.1875 276.070312 207.738281 278.980469 206.792969 283.628906 Z M 206.792969 283.628906 " fill-opacity="1" fill-rule="nonzero"/><g clip-path="url(#648e5911df)"><path fill="#ffffff" d="M 203.996094 147.015625 L 231.351562 108.601562 C 231.96875 107.738281 231.351562 106.539062 230.289062 106.539062 L 200.496094 106.539062 C 200.074219 106.539062 199.679688 106.742188 199.433594 107.085938 L 171.613281 146.15625 C 171.601562 146.171875 171.585938 146.191406 171.574219 146.207031 C 171.5625 146.222656 171.546875 146.238281 171.535156 146.253906 L 171.53125 146.261719 C 171.53125 146.261719 171.527344 146.265625 171.527344 146.265625 L 143.640625 185.429688 C 143.023438 186.292969 143.640625 187.492188 144.703125 187.492188 L 174.496094 187.492188 C 174.917969 187.492188 175.3125 187.285156 175.558594 186.941406 L 187.496094 170.175781 L 199.433594 186.941406 C 199.679688 187.285156 200.074219 187.492188 200.496094 187.492188 L 230.289062 187.492188 C 231.351562 187.492188 231.96875 186.292969 231.351562 185.429688 L 203.996094 147.015625 " fill-opacity="1" fill-rule="nonzero"/></g><g clip-path="url(#fe58fd1bba)"><path fill="#ffffff" d="M 162.386719 131.433594 C 169.261719 131.433594 174.835938 125.863281 174.835938 118.988281 C 174.835938 112.113281 169.261719 106.539062 162.386719 106.539062 C 155.511719 106.539062 149.9375 112.113281 149.9375 118.988281 C 149.9375 125.863281 155.511719 131.433594 162.386719 131.433594 " fill-opacity="1" fill-rule="nonzero"/></g></svg>