<svg xmlns="http://www.w3.org/2000/svg" xmlns:xlink="http://www.w3.org/1999/xlink" width="500" zoomAndPan="magnify" viewBox="0 0 375 374.999991" height="500" preserveAspectRatio="xMidYMid meet" version="1.0"><defs><g/><clipPath id="6846529674"><path d="M 176.78125 93.105469 L 205 93.105469 L 205 142 L 176.78125 142 Z M 176.78125 93.105469 " clip-rule="nonzero"/></clipPath><clipPath id="12f475c0e3"><path d="M 185 136 L 188 136 L 188 151.605469 L 185 151.605469 Z M 185 136 " clip-rule="nonzero"/></clipPath><clipPath id="b96ed59ed2"><path d="M 193 136 L 197 136 L 197 151.605469 L 193 151.605469 Z M 193 136 " clip-rule="nonzero"/></clipPath></defs><g fill="#521c53" fill-opacity="1"><g transform="translate(29.36331, 214.078361)"><g><path d="M 37.882812 -31.425781 L 63.539062 -59.40625 L 45.027344 -59.40625 L 22.386719 -33.148438 L 22.386719 -59.40625 L 6.886719 -59.40625 L 6.886719 0 L 22.386719 0 L 22.386719 -18.253906 L 26.605469 -22.902344 L 43.390625 0 L 62.765625 0 Z M 37.882812 -31.425781 "/></g></g></g><g fill="#521c53" fill-opacity="1"><g transform="translate(105.470287, 214.078361)"><g><path d="M 53.207031 -14.464844 C 52.347656 -21.609375 50.109375 -26.171875 43.910156 -28.410156 C 51.828125 -30.734375 55.875 -35.730469 55.875 -43.21875 C 55.875 -53.722656 48.386719 -57.941406 39.777344 -58.976562 C 36.589844 -59.320312 34.179688 -59.40625 30.476562 -59.40625 L 6.886719 -59.40625 L 6.886719 0 L 22.386719 0 L 22.386719 -22.558594 L 25.828125 -22.558594 C 27.550781 -22.558594 29.015625 -22.558594 30.734375 -22.472656 C 34.695312 -22.210938 37.28125 -18.425781 38.054688 -11.882812 C 38.570312 -7.664062 39.433594 -4.21875 40.808594 0 L 57.683594 0 C 55.359375 -3.53125 53.980469 -7.75 53.207031 -14.464844 Z M 22.386719 -33.75 L 22.386719 -47.351562 L 28.410156 -47.351562 C 30.046875 -47.351562 31.425781 -47.351562 32.542969 -47.265625 C 36.503906 -46.921875 39.691406 -45.542969 39.691406 -40.550781 C 39.691406 -35.558594 36.074219 -34.179688 32.113281 -33.835938 C 30.996094 -33.75 29.617188 -33.75 27.980469 -33.75 Z M 22.386719 -33.75 "/></g></g></g><g fill="#521c53" fill-opacity="1"><g transform="translate(176.325628, 214.078361)"><g><path d="M 22.386719 0 L 22.386719 -59.40625 L 6.886719 -59.40625 L 6.886719 0 Z M 22.386719 0 "/></g></g></g><g fill="#521c53" fill-opacity="1"><g transform="translate(215.498935, 214.078361)"><g><path d="M 37.625 -22.730469 L 58.546875 -59.40625 L 41.585938 -59.40625 L 30.304688 -35.902344 L 18.597656 -59.40625 L 1.207031 -59.40625 L 22.125 -22.730469 L 22.125 0 L 37.625 0 Z M 37.625 -22.730469 "/></g></g></g><g fill="#521c53" fill-opacity="1"><g transform="translate(284.718524, 214.078361)"><g><path d="M 40.292969 -15.410156 L 45.285156 0 L 62.160156 0 L 40.722656 -59.40625 L 21.78125 -59.40625 L 0.34375 0 L 16.789062 0 L 21.78125 -15.410156 Z M 31.082031 -45.71875 L 36.589844 -27.464844 L 25.570312 -27.464844 Z M 31.082031 -45.71875 "/></g></g></g><g clip-path="url(#6846529674)"><path fill="#cf005d" d="M 189.742188 93.777344 C 189 94.175781 188.664062 94.976562 188.25 95.660156 C 183.464844 103.847656 180.824219 113.273438 180.664062 122.761719 C 178.339844 124.324219 176.847656 127.058594 176.839844 129.867188 C 176.835938 133.414062 176.800781 136.960938 176.820312 140.511719 C 176.859375 141.597656 178.417969 142.117188 179.097656 141.257812 C 180.683594 139.152344 182.199219 136.992188 183.769531 134.875 C 184.890625 133.421875 186.703125 132.53125 188.535156 132.539062 C 190.140625 132.527344 191.742188 132.53125 193.34375 132.523438 C 195.140625 132.53125 196.917969 133.390625 198.011719 134.816406 C 199.585938 136.9375 201.097656 139.101562 202.683594 141.214844 C 203.398438 142.09375 205 141.480469 204.949219 140.347656 C 204.972656 136.855469 204.96875 133.359375 204.984375 129.867188 C 204.996094 127.058594 203.539062 124.308594 201.222656 122.726562 C 201.054688 112.839844 198.285156 102.984375 193.109375 94.542969 C 192.417969 93.445312 190.839844 93.105469 189.742188 93.777344 Z M 189.742188 93.777344 " fill-opacity="1" fill-rule="nonzero"/></g><path fill="#cf005d" d="M 192.234375 138.175781 C 192.285156 137.589844 191.929688 137 191.367188 136.804688 C 190.699219 136.539062 189.875 136.933594 189.65625 137.621094 C 189.5 139.78125 189.617188 141.96875 189.570312 144.140625 C 189.613281 144.882812 189.363281 145.800781 190.023438 146.351562 C 190.773438 147.078125 192.195312 146.496094 192.203125 145.445312 C 192.230469 143.023438 192.21875 140.601562 192.234375 138.175781 Z M 192.234375 138.175781 " fill-opacity="1" fill-rule="nonzero"/><g clip-path="url(#12f475c0e3)"><path fill="#cf005d" d="M 185.320312 137.722656 C 185.226562 141.703125 185.292969 145.6875 185.253906 149.667969 C 185.199219 150.265625 185.5 150.90625 186.085938 151.117188 C 186.875 151.480469 187.886719 150.824219 187.882812 149.957031 C 187.910156 146.027344 187.90625 142.097656 187.925781 138.164062 C 187.972656 137.578125 187.621094 136.980469 187.050781 136.785156 C 186.347656 136.511719 185.472656 136.980469 185.320312 137.722656 Z M 185.320312 137.722656 " fill-opacity="1" fill-rule="nonzero"/></g><g clip-path="url(#b96ed59ed2)"><path fill="#cf005d" d="M 193.996094 137.722656 C 193.902344 141.703125 193.96875 145.6875 193.929688 149.667969 C 193.871094 150.265625 194.171875 150.90625 194.761719 151.117188 C 195.550781 151.480469 196.5625 150.824219 196.558594 149.957031 C 196.585938 146.027344 196.582031 142.097656 196.601562 138.164062 C 196.648438 137.578125 196.296875 136.980469 195.726562 136.785156 C 195.023438 136.511719 194.148438 136.980469 193.996094 137.722656 Z M 193.996094 137.722656 " fill-opacity="1" fill-rule="nonzero"/></g></svg>